<svg id="Layer_1" data-name="Layer 1" xmlns="http://www.w3.org/2000/svg" viewBox="0 0 429.45 200.43"><title>iconArtboard 1</title><path d="M417.57,100.24C409.05,88.37,398,78.79,385.9,71.11c-24.15-15.51-51.77-24-79.63-28.82A180.39,180.39,0,0,0,262.55,38a62.53,62.53,0,0,0-12.71-12.57c-11.68-8.9-25.35-14.18-39.05-18C197,4.1,183,.89,168.77.19s-28.43.66-42.44,2.56c-27.8,4.31-56.2,10.73-80.44,26.36A133.77,133.77,0,0,0,13.26,57.05C3.64,67.73-1.35,87.54.32,98.47c2.28,15,11.4,28.31,23.07,36.89,11.68,8.9,25.35,14.18,39.05,18,13.82,3.39,27.77,6.6,42,7.29s28.43-.65,42.44-2.56a338.67,338.67,0,0,0,33.21-6.64,135.25,135.25,0,0,0,20.82,16.26c24.15,15.51,51.75,23.9,79.49,29.13,27.86,4.59,56.82,5.49,84.72-1.37,13.83-3.61,27.42-9,39.29-17.49,11.89-8.26,21.47-21,24.45-35.8C431.19,127.19,426.2,111.89,417.57,100.24ZM146.12,152.16a279.16,279.16,0,0,1-41.28.94c-13.7-.5-27.56-1.73-40.65-5.89A117.47,117.47,0,0,1,27.86,129.5C17,121.71,7,110.54,6.8,97.61,6.63,88,10.66,72.12,18.56,61.13S37.76,42,49.42,35c23.82-13.3,50.25-22.75,77.69-26.31a276.46,276.46,0,0,1,41.28-.94c13.7.5,27.56,1.72,40.65,5.89a117.47,117.47,0,0,1,36.33,17.71,54.76,54.76,0,0,1,8,7.14c-4.55.35-9.09.94-13.6,1.64A47.87,47.87,0,0,0,233.26,35C223.08,28.26,211.51,24.63,200,22.09c-11.53-2.33-23.12-4.62-34.91-5.09s-23.48,1-35.05,2.63c-11.55,1.88-23.08,3.85-34.46,6.85A141.39,141.39,0,0,0,63,40,128.23,128.23,0,0,0,34.68,61.57,48.19,48.19,0,0,0,24.2,76.74C21.89,82.63,22,95.59,22,95.59A37.35,37.35,0,0,0,29.28,113a55.5,55.5,0,0,0,13.64,12.4c10.18,6.73,21.75,10.36,33.23,12.9,11.53,2.34,23.13,4.62,34.91,5.09s23.48-1,35.06-2.63c11.54-1.88,23.08-3.85,34.45-6.85a141.39,141.39,0,0,0,32.61-13.47A128.18,128.18,0,0,0,241.5,98.87,48.09,48.09,0,0,0,252,83.7c2.31-5.9,2.16-18.85,2.16-18.85v-.06c4.27-.44,8.58-.61,12.89-.74A65.32,65.32,0,0,1,254.67,99.7c-7.86,11-19.2,19.17-30.86,26.14C200,139.14,173.56,148.59,146.12,152.16Zm18.15-20.89a168.26,168.26,0,0,1-18.94,3.62,278.83,278.83,0,0,1-34.05,1c-11.3-.24-22.74-.71-33.68-3.64a106.92,106.92,0,0,1-30.63-13c-9.34-5.72-18.52-14.2-18.44-24.55C28.59,87,32.69,74.65,39.69,66s16.65-14.85,26.6-20c20.17-9.85,41.89-17.61,64.56-20.46a276.91,276.91,0,0,1,34.05-1c11.3.25,22.74.72,33.69,3.65a106.7,106.7,0,0,1,30.62,13c.35.21.65.48,1,.7-2.86.62-5.72,1.26-8.55,2-13.78,3.7-27.26,9.09-39.29,17.26-12,8-21.87,20.69-24.76,35.65C155.76,108.78,158.65,120.93,164.27,131.27Zm23.43-29.45c2-10.06,9.61-18.33,19-23.58,9.28-5.48,19.94-8.64,30.69-10.88,3.61-.75,7.3-1.2,11-1.71-.68,10.59-4.86,20.15-11.84,28.78s-16.65,14.86-26.6,20c-5.82,2.84-11.81,5.43-17.88,7.86C188.45,115.9,186.52,108.83,187.7,101.82Zm195.05,59c-9.16,5.5-19.64,9.17-30.39,11.66-21.67,4.95-44.45,3.63-66.38.1-21.91-4.05-43.41-10.92-62.68-21.78a113.63,113.63,0,0,1-13.87-9.49,135,135,0,0,0,17.91-9.63A134,134,0,0,0,260,103.78c9.3-10.33,15.26-25.47,12.49-39.84a183,183,0,0,1,31.25,2.69c22,4,43.4,11.17,62.53,22.2,9.52,5.51,18.46,12.16,25.42,20.37,7.09,8,13.21,18.74,10.06,28.42C399.4,144.75,392.09,155.62,382.75,160.86Zm39.84-19.75c-2.26,12.83-10.79,24.11-22,31.44-11.1,7.56-24,12.46-37.25,15.62-26.53,6.71-54.65,6.72-81.91,2.65-27.2-4.53-53.87-13.86-76.76-28.9a124.94,124.94,0,0,1-16.11-12.81c4.81-1.45,9.54-3.16,14.21-5a117.35,117.35,0,0,0,17,12.67,162.1,162.1,0,0,0,31.48,14.48,238.33,238.33,0,0,0,33.55,8.13,236.9,236.9,0,0,0,34.38,2.73,211.23,211.23,0,0,0,34.45-3c11.41-2,22.82-5.39,33.1-11.59a52.3,52.3,0,0,0,13.67-11.9c3.86-4.88,6.71-12.36,7.73-16.88,1.38-6.14.22-12.64-2-18.42a54.7,54.7,0,0,0-9.22-15.5C389.38,95.6,379.91,88.46,370,82.52c-20.05-11.94-42.6-18.33-65.19-22.19a307.84,307.84,0,0,0-34.34-3.1A172.87,172.87,0,0,0,235.89,60,99.49,99.49,0,0,0,203.1,72.37a54.51,54.51,0,0,0-13.68,11.72,38.08,38.08,0,0,0-7.72,16.73c-1.08,8.36,1,16.43,4.65,23.57q-7.33,2.72-14.86,4.86c-5.74-9.55-8.59-20.58-7.13-31.33,2.35-12.69,10.6-24,21.68-31.59,10.94-7.87,24-12.78,37.25-15.85,26.79-6.11,54.5-4.92,82-2.43C332.37,53,359,62.22,381.92,77.25c11.34,7.53,21.95,16.32,29.94,27.08S424.32,128.23,422.59,141.11Z" fill="#142e4b"/></svg>