<svg id="Layer_1" data-name="Layer 1" xmlns="http://www.w3.org/2000/svg" viewBox="0 0 466.67 237.47"><title>iconArtboard 1 copy</title><path d="M466.49,225.8c-17.56,2.6-34.44,5.92-51.29,1.89-9.64-1.6-19.38-2.42-29.12-3.15,4.95-7.37,7.53-14.87,10.44-22.44,2.83-7.79,5.29-15.65,7.71-23.52,2.23-7.92,4.37-15.86,6.31-23.84l2.78-12,1.24-6,.6-3,.3-1.51.21-1.12a3.27,3.27,0,0,0-.26-1.73,1.75,1.75,0,0,0-.26-.46,3.2,3.2,0,0,0-.37-.65l-.38,0c-.12-.08-.17-.23-.31-.28-11.95-4.22-24.29-6.4-36.73-7.87l-3.58-.42c-2.11-20.24-9-40.1-17.24-61.41a8.45,8.45,0,0,1-.72-2.59c0-1,.81-2.3,1.8-3.85,3.52-5.48,7.74-14.16,7.94-24.36.21-9.92-3.67-19.1-10.11-23.94A17.25,17.25,0,0,0,342.52.2a16.15,16.15,0,0,0-10.79,6.66c-5,7.06-4.52,16.89-3.23,23.9.44,2.33,1,4.64,1.52,7,1.15,4.89,2.24,9.51,2.27,14.21a5.86,5.86,0,0,1-.08,1.2,5,5,0,0,1-1.37,1.43c-14.95,12.56-25,26.78-29.78,42.28a102.13,102.13,0,0,0-3.45,16.39c-6.64,0-13.27.1-19.89.29a169.78,169.78,0,0,0,.38-27.87c-.41-5.06-1.56-11.24-6.73-14.12-.38-.22-.8-.41-1.21-.6a3.9,3.9,0,0,0-1-.4,7.78,7.78,0,0,1,.85-2.19c6.43-12.66,8.23-35.42-5.11-45.2-7.62-5.59-16.6-5.55-22.91.07-9,8-8.76,25.86-2.56,35.84.89,1.44,1.91,2.79,2.94,4.14a37,37,0,0,1,3.13,4.58,3.09,3.09,0,0,1,.46,1.13c0,.83-3.17,1.93-4.52,2.4l-1,.35c-6.58,2.36-11.91,8.3-14.62,16.27-2.89,8.54-3.7,18-4.13,27.47-4.23.13-8.47.28-12.7.49-2.16-17-6-33.72-11.29-47.38a8.37,8.37,0,0,1-.71-2.6c0-1,.79-2.28,1.8-3.85,3.51-5.48,7.74-14.15,7.94-24.35.21-9.92-3.67-19.1-10.12-23.94a17.32,17.32,0,0,0-12.94-3.27,16.19,16.19,0,0,0-10.78,6.67c-5,7.06-4.52,16.89-3.22,23.9.43,2.33,1,4.64,1.51,7,1.15,4.89,2.24,9.51,2.27,14.21a6,6,0,0,1-.08,1.2A5.08,5.08,0,0,1,172,64.84C157,77.39,147,91.62,142.19,107.11a95.11,95.11,0,0,0-3.07,13.77c-7.72.5-15.43,1-23.13,1.8h0a3.19,3.19,0,0,0-1.75.75l-.54.46c-2-4.75-4-9.49-6-14.24-2.61-6-4.7-12.14-6.89-18.27a2.82,2.82,0,0,0-.07-2.15c-1.36-3-2.85-6-4.26-9-2.39-5.69-4.9-11.34-7.29-17L89,63a2.34,2.34,0,0,0-3.14-1c-.14.07-5.11.63-5.11.63-1.74.18-3.47.41-5.19.7-3.46.48-6.89,1.15-10.32,1.79A155.62,155.62,0,0,1,44.6,68.45c-6.94.68-13.89,1.18-20.8,1.23A136.25,136.25,0,0,1,3.38,68.52l-.12,0a2.83,2.83,0,0,0-1.88,5.23c6.26,3.71,12.51,7.42,18.84,11C14.6,88.46,9.07,92.3,3.54,96.13a2.89,2.89,0,0,0,1.85,5.25h.1c7.74-.55,15.49-1.15,23.2-2.11S44.12,97.41,51.87,97c10.51-.81,21-1.56,31.54-2.43q3.45,8.61,7.13,17.13c2.92,6.87,5.83,13.75,8.13,20.86.36,1.09.82,2.13,1.2,3.21-4.62,3.93-9.26,7.86-13.82,11.87a2.86,2.86,0,0,0-2.3,3.1,83.82,83.82,0,0,0,2.08,10.41l2.41,9.65,5,19.19,9.83,36c-16.44-2.11-32.68-6.57-50.34-7.58a111.69,111.69,0,0,0,50.79,15.93,127,127,0,0,0,27-1.59l26.13-3.35c17.36-2.2,34.79-4.5,52-5.61a75.05,75.05,0,0,1,12.35-.25c3.72.45,7.77,1.92,11.73,3.42,8,3,15.93,7,25,9.45a32.06,32.06,0,0,0,7.22,1.09,49,49,0,0,0,7-.44,131.44,131.44,0,0,0,13.35-2.35c8.7-2,17.16-4.33,25.52-5.86a82.11,82.11,0,0,1,12.42-1.48c4-.12,8.25.16,12.68.43,8.73.41,17.49.69,26.2,1.44,17.45,1.38,34.68,4.78,52.13,6.16,8.5.94,18.42,1.16,27-.89a151.3,151.3,0,0,0,25.38-8Zm-60.84-94.49c-.8.35-1.54.66-2.4,1.07-2.95,1.48-6.29,2.39-9.43,3.6-6.46,2.12-13.06,3.93-19.72,5.57l-.14,0a109.72,109.72,0,0,0,.28-15.68C384.71,127.75,395.15,129.77,405.65,131.31ZM307.58,98.86C312,84.63,321.3,71.49,335.24,59.79a10.17,10.17,0,0,0,3.49-4.63,11,11,0,0,0,.39-3.26c0-5.49-1.26-10.71-2.44-15.75-.53-2.21-1-4.41-1.46-6.64-1.49-8.07-.76-14.7,2.08-18.68A9.41,9.41,0,0,1,343.56,7a10.36,10.36,0,0,1,7.78,2c4.65,3.49,7.55,10.68,7.4,18.33a37,37,0,0,1-3.43,14.25,13,13,0,0,1-9.74-7.16,2.09,2.09,0,0,0-2.69-1.11,2.06,2.06,0,0,0-1.12,2.68,16.86,16.86,0,0,0,11.66,9.45c-.57,1-1.14,2.06-1.7,2.93-1.21,1.89-2.72,4.23-2.73,7.27a14.19,14.19,0,0,0,1.2,5.17c11,28.7,19.91,54.69,16.86,82.1a2,2,0,0,0,0,.25q-16.59,3.75-33.41,6.6c-10.12,1.64-20.28,3-30.44,4.44C302.5,140.88,302.13,116.4,307.58,98.86Zm-32.82,44.41c.48-2.57,1.13-6.07,1.92-16.63l.58-7.32q9.81,0,19.6.26a246.31,246.31,0,0,0-.46,35.26c0,.1.06.18.07.27-7.45,1-14.92,1.74-22.39,2.57C274,147.51,274.24,146,274.76,143.27Zm-47.61-11.09c.21-3.28.33-6.7.46-10.18.39-11,.8-22.48,4.06-32.09,2.07-6.08,6.12-10.73,10.84-12.43l.93-.32c3.29-1.14,8.79-3,8.7-8.38a8.67,8.67,0,0,0-1.21-4,43,43,0,0,0-3.65-5.37c-.9-1.19-1.81-2.38-2.59-3.65-4.8-7.73-5.09-22.13,1.41-27.93,4.88-4.35,11-2.7,15.1.3,7.28,5.34,8.5,17,6.59,27-.22-.06-.38-.24-.64-.23-10.49.47-11.93-5.82-12-6.13a2.06,2.06,0,0,0-4.06.75c.62,3.37,4.56,9.53,15.1,9.53h.64a37.24,37.24,0,0,1-2.4,6.43c-.87,1.71-2.49,4.9-.77,7.92a7.73,7.73,0,0,0,3.86,3.1l.82.41c2.61,1.45,3.27,5.68,3.56,9.2.92,11.21.08,21.56-.83,32.5l-.6,7.53c-.76,10.22-1.38,13.53-1.83,15.94-.6,3.2-.89,4.93-.78,16.23-5.41.57-10.81,1.29-16.23,1.76-9.1.86-18.2,1.3-27.3,1.56.43-5.73.85-9.4,1.27-12.94C226.12,144.46,226.63,140.18,227.15,132.18Zm-5.74-10.7v.3c-.12,3.42-.24,6.78-.45,10-.5,7.83-1,12-1.5,16.21-.45,3.72-.89,7.6-1.34,13.78-2.65,0-5.3.16-7.94.14a213.4,213.4,0,0,0-.55-39.64Q215.52,121.89,221.41,121.48Zm-72.69-12.34c4.42-14.22,13.72-27.37,27.64-39.06a9.88,9.88,0,0,0,3.5-4.63,11,11,0,0,0,.39-3.26c0-5.5-1.25-10.71-2.44-15.75-.52-2.21-1-4.42-1.45-6.64-1.49-8.07-.76-14.7,2.07-18.69a9.43,9.43,0,0,1,6.27-3.87,10.44,10.44,0,0,1,7.78,2c4.64,3.49,7.54,10.69,7.39,18.34a36.55,36.55,0,0,1-3.44,14.27,12.49,12.49,0,0,1-9.73-7.18,2.06,2.06,0,0,0-3.81,1.57,16.85,16.85,0,0,0,11.67,9.44c-.57,1-1.15,2.08-1.71,3-1.21,1.88-2.72,4.22-2.72,7.25a13.84,13.84,0,0,0,1.2,5.17c9.83,25.59,14.63,62.4,12,90.67-11.36-.28-22.71-.91-34.06-2.14-8.17-.83-16.32-1.83-24.47-2.9C143.91,138.6,144.29,123.4,148.72,109.14Zm-31.15,19.93c7-.55,13.88-1.21,20.82-1.87a196.1,196.1,0,0,0-.46,28.51c-4.2-.59-8.4-1.17-12.59-1.8-2.59-7.11-5.39-14.14-8.1-21.2-.32-.85-.69-1.68-1-2.52ZM51.43,91.92c-7.71.89-15.47,1.27-23.23,1.73-4.36.22-8.7.57-13,1,3.6-2.68,7.23-5.32,10.74-8.13l.18-.14a2,2,0,0,0,.55-.65,2.25,2.25,0,0,0-.87-3.06h0c-3.71-2.51-7.52-4.85-11.3-7.25,3.18.09,6.34.06,9.49-.07,7.14-.26,14.2-1,21.22-1.84,7-1,14.05-1.59,21.07-2.47,3.5-.5,7-1,10.44-1.88,1.73-.34,3.44-.81,5.14-1.31L84.36,67l1-.34C88.18,73.93,91,80.94,94,87.89,79.76,89,65.6,90.54,51.43,91.92Zm44,17.79c-1.94-5.26-4-10.49-6-15.71,2-.18,4.08-.33,6.11-.54,2.6,6,5.31,11.9,7.49,18,2.91,7.8,5.64,15.68,8.8,23.39,2.46,6,4.88,12.06,7.4,18.06-2.58-.41-5.15-.8-7.72-1.22,0-.08.05-.15,0-.23a102.14,102.14,0,0,0-7.61-21.07C100.65,123.68,98,116.7,95.4,109.71Zm11.23,41.22c-4.27-.71-8.53-1.47-12.79-2.22,2.78-2.3,5.56-4.58,8.32-6.89A86.26,86.26,0,0,0,106.63,150.93Zm-15.92,3.68a703.3,703.3,0,0,0,78,10.85c27.64,2.24,55.7,3,83.38.64A817,817,0,0,0,334.74,156c13.67-2.44,27.3-5.14,40.83-8.52,6.76-1.71,13.49-3.61,20.16-5.85,3.3-1.29,6.67-2.23,9.91-3.86,1.23-.6,2.74-1.25,3.84-1.82l-1.6,5.43-3.38,11.78-.6,2.05c-23.89,8.66-49.29,13-74.64,16.9-13,2-26.22,2.72-39.37,3.91-13.13,1.36-26.27,2.9-39.42,4.53s-26.2,3.32-39.27,3.49-26.23-.17-39.37-.77c-13.13-.77-26.3-1.48-39.35-3.43-12.28-1.92-24.54-3.81-37-4.64l-1.46-5.88-2.25-9.6C91.45,158.1,91.05,156.3,90.71,154.61Zm6,25.43a222.18,222.18,0,0,0,35.16,5.08c13.21,1.06,26.37,2.76,39.62,3.58s26.55,1.57,39.88.8c13.4-.38,26.59-3,39.62-4.15l39.48-3.4,39.44-4.82c24.3-2.87,48.85-6.82,72.11-15.54l-4.4,15c-1.32,4.56-2.67,9.1-4.08,13.62-10.59,3.16-22.5,4.47-33.95,5.94-12.28,1.37-24.57,2.91-36.92,4.05-12.32,1.34-24.74,1.64-37.12,2.42l-37.09,3.11c-24.74,2.06-49.43,1.39-74.18,1.3-12.36-.34-24.75-.51-37.06-1.87-11.6-1.35-23.19-2.66-34.87-3L98.82,188.5ZM322.9,219.35a77.1,77.1,0,0,0-13.62,2c-8.81,2.06-17.09,5.06-25.44,7.13s-17.08,3.76-24.39,1.51c-7.91-2.28-15.71-6.37-24-9.78-4.18-1.68-8.38-3.42-13.37-4.2a78.45,78.45,0,0,0-13.92-.14c-17.75,1.43-35.07,4.08-52.46,6.58-14.08,1.86-28.13,4.85-41.85,4.5-1.85-.5-3.72-1-5.56-1.53L103.59,207a191.7,191.7,0,0,0,33.24,3.49l37.3,2c24.88,1.4,49.88-.28,74.66-1.92l37.2-2c12.38-1,24.72-2.54,37.12-3.31,12.39-1,24.82-1.72,37.19-3.29,6.19-.8,12.37-1.61,18.56-2.71a119.06,119.06,0,0,0,12.64-2.76c-.37,1.12-.71,2.26-1.09,3.37-2.56,7.18-5.27,14.73-9,20.65-4.78.93-9.62,1.63-14.43,2.43-1.43-.12-2.86-.22-4.28-.36l-26.24-2.75C332.18,219.63,327.69,219,322.9,219.35Z" fill="#142e4b"/></svg>