<svg id="Layer_1" data-name="Layer 1" xmlns="http://www.w3.org/2000/svg" viewBox="0 0 363.02 357.67"><title>iconArtboard 1 copy 2</title><path d="M360.19,92.89h-.25c-15-.26-29-8.17-43.69-14a82.9,82.9,0,0,0-23.43-6.13c-8-.78-15.85-.76-23.15-2.6-14.8-3.57-27.32-13.37-40.16-22.42a273,273,0,0,0-41-24.19A293.39,293.39,0,0,0,143.94,6.63,153.17,153.17,0,0,0,96.59,0C80.59.07,64.72,2.5,49.25,6c-3.87.88-7.75,1.7-11.56,2.79A48.37,48.37,0,0,0,26,13.08c-6.49,3.54-10.51,9.68-13.21,15.85a15.5,15.5,0,0,0-2.48,6.12c-.87,6.74,1.07,12.46,3.72,18A15.1,15.1,0,0,0,21.42,60a6.6,6.6,0,0,0,3.37.51,5.13,5.13,0,0,0,2.32-.95,33.41,33.41,0,0,0,3.38,2.23l-2,.05A25.42,25.42,0,0,0,20,63.24c-5.21,2.43-9.75,4.32-14.21,8.27A16.41,16.41,0,0,0,1,79.08,30.9,30.9,0,0,0,0,87.66a13.75,13.75,0,0,0,2.85,8.88A24.14,24.14,0,0,0,9.6,102a31.38,31.38,0,0,0,7.91,3.13c1.62.34,2.11.38,3.67.83a6.21,6.21,0,0,0,3.26,0c.25-.07.39-.17.61-.25a10.07,10.07,0,0,0,3,4,11,11,0,0,0,7.12,2.34c-.28,4.51.73,8.83,2,13.07,1.3,5,2.14,10.17,3.38,15.25,2.18,10.3,7.53,19.56,12.91,28.72a34.4,34.4,0,0,0,11.35,11.76c.79.45,1.64.72,2.44,1.11-5.44,11.19-8.72,23.49-7.9,36.38a37.28,37.28,0,0,0,2.31,10.45,51.86,51.86,0,0,1,3,9.14,166.59,166.59,0,0,1,3.1,19.3C69.3,270.33,70,283.53,71,296.71c.81,13.16,1.62,26.45,1.6,39.56a2.31,2.31,0,0,0,1.29,2C73,341.14,72.08,344,71.32,347l-.22.09a3,3,0,0,0-1.37,1.65,2.6,2.6,0,0,0,.35,2.48,3.23,3.23,0,0,0,1.13,1,6,6,0,0,0,.91.34c.82.24,1.47.35,2.16.5l4,.62c2.59.41,5.18.79,7.74,1.33,5.06,1.16,10.18,2.46,15.6,2.63a119.7,119.7,0,0,0,16.14-.65,48.16,48.16,0,0,0,8.16-1.53c2.8-.92,5.29-1.68,8.12-4.44a2.72,2.72,0,0,0-.69-4.4l-.31-.15c-6.34-3.12-13-5.57-19.39-8.59-4.54-2.16-5.13-4.39-7.67-5.94q1.83-12.66,3.16-25.39c1.1-11.56,2.67-23.07,4.09-34.6s2.81-23.07,3.55-34.71c0-.74.1-1.48.14-2.22.85,5.74,1.75,11.46,2.49,17.21l0,.18a2,2,0,0,0,1.14,1.56c8.23,3.82,16.14,2.31,23.67,1.4,2.34-.37,4.62-.9,6.92-1.38a38.23,38.23,0,0,1,7,12.8c.78,2.54.12,5.4,0,8.21s.28,5.76.32,8.71-.43,5.82-.1,9.38a7.44,7.44,0,0,0,1.05,3.12,4.46,4.46,0,0,0,5.32,1.91c3-1.66,3.24-3.1,4.17-4.53.56-1.05,1-2.07,1.46-3.1a17.2,17.2,0,0,0,.86,5.35c.51,1.12,1.28,3.19,4,3.68,3.06-.14,3.7-1.71,4.45-2.47,2.49-3.53,3.85-6.84,5.61-10.2a98.71,98.71,0,0,0,7.79-20.76l.62-2.35-2-.83c-2.66-1.1-5-4.81-5.82-8.61a75.94,75.94,0,0,0-2.84-9.49c8.76-3,17.45-6.2,26-9.75l.1,0a2.7,2.7,0,0,0,1.65-2.24c.89-9.68-1.43-18-3.34-26.5-2.13-8.41-4.66-16.67-7.43-24.84-5.67-16.31-11.75-32.38-19.9-47.86C172.67,121.18,164.31,110,156,98.75c3.55,2.1,7.12,4.08,10.53,6.1a71.47,71.47,0,0,1,11.9,8.34c3.56,3.08,6.55,7.07,10.27,10.83,7.56,7.73,17.86,12.24,28.12,14.09s20.78,1.59,30.91.51c20.37-2.08,40-7.55,59.45-12.72,10.05-2.33,19.52-6.85,28.48-11.52q6.76-3.57,13.29-7.53c4.45-2.8,8.43-5,13.07-8.88a2.92,2.92,0,0,0,1-2.15A2.88,2.88,0,0,0,360.19,92.89Zm-341-42.5c-2-4.55-3.7-10-3.15-14.52.33-4.62,3.83-8,8.67-10.17C45,18.07,68.65,18,88.57,25.81c9.77,4.15,19.26,10.78,24,20.11,2.3,4.57,1.61,9.23-1.59,11.57-3,2.49-7.87,1.42-12.78-.87l.29-.48c-8.79-6.33-17.81-13.72-28.33-18.82a50,50,0,0,0-17-5,31.32,31.32,0,0,0-4.79-.15,19.58,19.58,0,0,0-4.74,1.18,42.46,42.46,0,0,0-8,4.06,34.83,34.83,0,0,0-3.68,2.69,11.12,11.12,0,0,0-3.26,4.15c-1.34,3-1.76,5.83-2.69,8.27a8.07,8.07,0,0,1-1.43,2.74c-.42.26-.08.2-1-.11A9.69,9.69,0,0,1,19.2,50.39ZM64.33,46.8a15.87,15.87,0,0,1-1,7.27c-1.73,4.19-3.4,8.63-8.31,8.79-2.18,0-4.82-.74-7.19-.93a19.61,19.61,0,0,1-7.35-1.49c-3.41-1.81-6.83-3.69-10.09-5.66.08-.23.19-.47.27-.69a62.08,62.08,0,0,1,2.58-7.72c.68-1.7,2.94-3.07,5.17-4.52a36.36,36.36,0,0,1,7.07-3.33c2.58-1,4.2-.88,7.06-.52a51.59,51.59,0,0,1,11.36,3.14A16.93,16.93,0,0,0,64.33,46.8Zm-.74,17.36a49.74,49.74,0,0,0,1.53,5.56l.49,1.42a24,24,0,0,0-6.06-4.65A15.44,15.44,0,0,0,63.59,64.16Zm6,19.23a11.11,11.11,0,0,1,.21,2.33h-.09l-.66.11A12.43,12.43,0,0,0,69.6,83.39Zm-33.54-16a131.15,131.15,0,0,1,14.79,1.45c4.63.88,9.41,2.83,11.47,6.55,1.79,3.57,1.9,7.26,1,11.29-3,.39-6,.76-9.12,1.13a103.24,103.24,0,0,0-14.33,2.39c-5.5-2.58-10.81-5.16-16.62-7.6-.92-.19-1.45-2.8-1.7-5.53a13.43,13.43,0,0,1,1-8.54,3.45,3.45,0,0,0,.27-1.17h0C26.61,66.29,31.45,67.14,36.06,67.36Zm-11.3,32.86s0,0,0,0l-.07,0a7.17,7.17,0,0,1-1.4.37c-.37,0-.08,0-.55-.14a31.68,31.68,0,0,0-3.82-1.09,25.32,25.32,0,0,1-6.38-2.59A25.32,25.32,0,0,1,6.94,93a7.15,7.15,0,0,1-2-5.41,14.86,14.86,0,0,1,5-11.74,55.44,55.44,0,0,1,6.42-5.12,61,61,0,0,1-.71,6.51,13.65,13.65,0,0,0,.93,5.52,8,8,0,0,0,4.83,5.06,50.7,50.7,0,0,1,8.32,3.67c.94.47,1.83,1,2.76,1.54A31.4,31.4,0,0,0,29,94.84,11.07,11.07,0,0,0,24.76,100.22Zm5.29,2.29a4.76,4.76,0,0,1,2.34-2.77,43.32,43.32,0,0,1,6.93-3.27,3.08,3.08,0,0,0,2.25-.83,68.78,68.78,0,0,1,13.27-3c4.1-.51,8.27-.85,12.5-1.25l3.18-.35a7.81,7.81,0,0,0,2.25-.53,4.38,4.38,0,0,0,2.49-3.16,18,18,0,0,0-.55-7.49c-2.25-8.1-5.92-15.19-6.53-22.46.19-.65.36-1.31.48-2,.59-2.94.48-5.79.93-8.6a17.46,17.46,0,0,0,.33-3.05,157,157,0,0,1,18,11.45c.7,7.95,1.34,15.84,2.53,24.07L92.14,92l.59,3.18c0,.2.06.32.08.45a19.27,19.27,0,0,1-1.88.62l-3,.89c-8,2.28-15.78,4.13-23.76,4.31a66.11,66.11,0,0,1-12-.72l-3.2-.52a5.84,5.84,0,0,0-4.9,1.3c-1.43,1.68-1.3,2.06-1.95,2.73a8.35,8.35,0,0,1-1.89,1.6c-2.85,1.87-6.67,1.88-8.71-.17A3.87,3.87,0,0,1,30.05,102.51Zm27.5,63.78c-5.3-6.88-7.63-15.44-10.38-23.74,1.69,2,3.51,1.14,9.79-4.82-4.74-1.73-7.53.6-10.31,3.27-.23-.71-.45-1.43-.7-2.12a77.23,77.23,0,0,1-3.67-14.69c-.38-4.44-.76-8.84-2.17-13.09a13.28,13.28,0,0,0,2.67-1.32,14.21,14.21,0,0,0,2.82-2.5,27.55,27.55,0,0,0,1.7-2.37,16.69,16.69,0,0,1,4,.63,72.79,72.79,0,0,0,12.91,1.58,60.11,60.11,0,0,0,15.1-1.77A27.77,27.77,0,0,1,86.65,107a84.47,84.47,0,0,1,8.4,3.52,172.13,172.13,0,0,1,16.2,8.91,2.77,2.77,0,0,0,2.77.06,2.73,2.73,0,0,0,1.07-3.73,180.21,180.21,0,0,1-9.31-19.44c-1.25-3.23-2.44-6.81-2.55-9.5a20.74,20.74,0,0,1,2.92-9c1.6-2.85,3.79-5.63,6.12-7a2.94,2.94,0,0,1,2.61-.48c.72.37.9.54,1.1,1.82.2,2.58-.92,6.19-2,9.58-1,3.56-2.5,6.89-2.39,11.74a8,8,0,0,0,1.29,3.82l1.56,2.35,3.12,4.54,6.18,9c4,6,8.2,12.15,11.24,18.35a15.58,15.58,0,0,1,.82,2.12h0l-.23.29a5.14,5.14,0,0,1-3.23,2.08c-2.77.63-6.35,0-9.7-.74a128,128,0,0,1-20.21-7.18,2.75,2.75,0,0,0-3.18,4.3l.24.28a19.83,19.83,0,0,1,2.6,5.66,51.27,51.27,0,0,1,1.54,7.11c.63,4.92,1,10.16,1.57,15.23.92,7.41,1.72,14.89,2.76,22.4a105.34,105.34,0,0,1-26.85-1.3A32.85,32.85,0,0,1,71.49,178h0A28.7,28.7,0,0,1,68,175.94,55,55,0,0,1,57.55,166.29Zm54,176c4.87,2.28,9.6,4.82,14.41,7.21a27.64,27.64,0,0,1-8.82,2.77c-4.91.81-10,.32-15-.45S92,350.57,86.8,350c-2.57-.31-5.11-.83-7.63-1.38L77,348.11c.89-2.83,1.66-5.7,2.49-8.55v0l21.89,3.92h0a2.74,2.74,0,0,0,2.8-1.29C106.07,341.77,107.8,340.59,111.5,342.31Zm-.58-105.53-3.08,34.57c-1.08,11.53-2.32,23-4.1,34.51-1.56,10.53-3.09,21.08-4.32,31.65l-22.13-3.25c-.22-26-.54-51.83-4.09-77.66a172.82,172.82,0,0,0-3.6-19.87c-.66-3.16-2.36-7-3.3-9.68a26.85,26.85,0,0,1-1.56-9c.14-11.39,3.41-22.85,6.73-34.17,2.79,1.08,5.61,2,8.42,2.9,9.41,2.93,19.21,3.12,28.87,1.68.16,1,.24,2,.43,3a77.17,77.17,0,0,0,1.76,7.83,36.46,36.46,0,0,1,.92,3.92C112.74,213.89,111.72,225.55,110.92,236.78ZM168,283.23a24.34,24.34,0,0,1-3.78,7.45,7.27,7.27,0,0,1-.5.67,22.56,22.56,0,0,1-.51-7.49c.25-2.88.95-5.79.94-8.79s-.79-6-1.11-9.24a24,24,0,0,0-5.68-13.24c1.49-.37,3-.78,4.44-1.18,3.69,5.22,7,11,8.55,16.8a30,30,0,0,1,.8,8A15.34,15.34,0,0,0,168,283.23Zm12.61-27a56.83,56.83,0,0,0,3.37,6.05,17.76,17.76,0,0,0,3.49,3.82c-2.42,6.19-4.7,12.46-6.81,18.7a34.39,34.39,0,0,1-4.23,8.32,32.18,32.18,0,0,1-.12-3.63c.07-3.46-.18-7.15-.18-10.86s.32-7.46-.27-11.56c-1.23-6.71-4.48-12.25-8.43-17.24,3.57-1.06,7.07-2.29,10.6-3.45A24,24,0,0,0,180.64,256.26Zm-4.78-120.34c7.69,15,13.66,31.12,19.06,47.22,2.65,8.09,5.06,16.26,7.06,24.48,1.71,7.55,3.41,15.58,3.05,22.7a413.82,413.82,0,0,1-40.12,14.83,180.89,180.89,0,0,1-21.51,5.29c-6.66,1.06-14.06,1.87-19.59-.28L120,221l-2.23-15.31a75.51,75.51,0,0,0-1.56-7.88,69.55,69.55,0,0,1-1.5-7.24c-1.66-9.95-2.29-20.23-3.41-30.49-.63-5.15-1.09-10.15-1.86-15.42a56.31,56.31,0,0,0-1.87-7.91c-.11-.28-.2-.54-.3-.82a106.14,106.14,0,0,0,14.34,4.46c3.75.72,7.6,1.52,12,.51a10.57,10.57,0,0,0,5.83-3.71l.45-.54.2-.25a4.31,4.31,0,0,0,.59-1.06,5,5,0,0,0,0-2.75,18.49,18.49,0,0,0-1.09-3c-3.33-7-7.4-13-11.4-19.21l-6.1-9.16-3-4.54-1.44-2.24a2.2,2.2,0,0,1-.43-1.31c-.09-2.53,1.2-6.19,2.29-9.59,1.05-3.56,2.53-7,2.37-11.81,0-2.36-1.87-5.84-4.66-6.8a8.78,8.78,0,0,0-7.87.85c-4,2.47-6.25,5.82-8.24,9.27s-3.43,7.21-3.57,11.78c.27,4.64,1.7,8,3,11.61,1.62,4,3.44,7.83,5.35,11.61q-4.2-2.28-8.54-4.33c-2.58-1.22-5.26-2.29-8-3.28l.25-.08,3-1a11.9,11.9,0,0,0,3.65-1.73,4.45,4.45,0,0,0,1.64-3.11,7.81,7.81,0,0,0-.24-2.3l-.59-3A77.65,77.65,0,0,1,95.82,78.9c-.13-6.45-.39-13.2-2.16-19.72.69.46,1.34.93,2,1.38l.3-.47a20.19,20.19,0,0,0,8.29,4.36,12.85,12.85,0,0,0,10.35-2,13,13,0,0,0,3.76-4.59c8.8,12.54,17.85,24.88,27.27,36.93l15.58,20.42C166.27,122.05,171.81,128.84,175.86,135.92Zm-39.74-2.51c.08-.13.17-.23.13-.17Zm196.85-24c-8.78,4.75-17.57,9.18-27.16,11.58-19.33,5.5-38.87,10.24-58.65,12.1-9.87.92-19.77,1-29.28-.83-9.5-1.66-18.5-5.59-25.17-12.29-3.4-3.35-6.53-7.46-10.6-11a78.09,78.09,0,0,0-12.86-8.88c-8.68-5-17.53-9.29-24.14-15.91Q132.87,67.95,119.7,52.39a17.82,17.82,0,0,0-2.49-8.87A57.34,57.34,0,0,0,90.76,20.73a75.54,75.54,0,0,0-16.71-5.16,89.44,89.44,0,0,0-17.36-1,117.86,117.86,0,0,0-31.25,5.77,20.79,20.79,0,0,1,3.31-2.18,42.48,42.48,0,0,1,10.48-3.52L50.6,11.83C65.77,8.18,81.17,5.48,96.68,5a140.29,140.29,0,0,1,45.75,6.71,287,287,0,0,1,43.53,17,321.65,321.65,0,0,1,40.45,23.4c12.84,8.73,25.93,18.91,42.16,22.63,8.06,1.84,16.1,1.75,23.73,2.71a78,78,0,0,1,22,6.17c11.95,4.9,23.95,11.76,37.59,14.25C346,101.92,339.29,105.94,333,109.43Z" fill="#142e4b"/><path d="M47.31,121.14c.22,5.65,2.06,7.29,8.66,7.48C53.73,125.31,52.38,121.65,47.31,121.14Z" fill="#142e4b"/><path d="M72.29,113.12l-.9-1.37a67.4,67.4,0,0,0-9.13,3.2c-.67.34.05,2.79.13,4.27l1.39.6Z" fill="#142e4b"/><path d="M66.77,140.61c-.92.48-1.15,2-1.7,3,1.17.47,2.61,1.57,3.46,1.29a76.26,76.26,0,0,0,8.09-3.7C73.08,139.58,69.88,139,66.77,140.61Z" fill="#142e4b"/><path d="M88.39,127.82l7.83-4c-3.2-.87-5.66-1.63-8.18-2.18-.78-.17-2.19,0-2.49.46a2.79,2.79,0,0,0-.22,2.62A18.5,18.5,0,0,0,88.39,127.82Z" fill="#142e4b"/><path d="M73.35,171.9c2.57,3.91,3.75,4,6.16.88,1.37-1.74,2.76-3.47,4.14-5.2l-1-1.16Z" fill="#142e4b"/><path d="M66,130.2c3.79,1.58,5.24,1,9.61-3.63C72.17,122.68,68.65,125,66,130.2Z" fill="#142e4b"/><path d="M125.85,122.26c-4.93-1.79-7.75.78-10.64,3.58C117.26,129.32,118.52,129.22,125.85,122.26Z" fill="#142e4b"/><path d="M91.23,140.34c-2.25-3.3-3.59-7-8.67-7.48C82.78,138.52,84.63,140.16,91.23,140.34Z" fill="#142e4b"/><path d="M89.46,158.13c4.73,3.84,7.37,3.85,12.16-.12C97.37,157.08,93.45,155.33,89.46,158.13Z" fill="#142e4b"/><path d="M56.69,153.52l3.77-5.15-7,2.49Z" fill="#142e4b"/><path d="M69.86,163.31c-1.46-2.52-3.37-4.85-5.11-7.26l-1.88.75c1,2.78,1.84,5.59,3.07,8.28.28.61,1.88.76,2.87,1.12C69.2,165.22,70.23,164,69.86,163.31Z" fill="#142e4b"/><path d="M91.34,173.2c-.67.33,0,2.78.13,4.26l1.4.6,8.5-6.7-.9-1.37A67.43,67.43,0,0,0,91.34,173.2Z" fill="#142e4b"/><path d="M83.32,156.51l-1.91-7.95-3.87,1.93,4.61,6.28Z" fill="#142e4b"/></svg>