<?xml version="1.0" encoding="UTF-8"?>
<svg width="372px" height="267px" viewBox="0 0 372 267" version="1.1" xmlns="http://www.w3.org/2000/svg" xmlns:xlink="http://www.w3.org/1999/xlink">
    <!-- Generator: Sketch 57.1 (83088) - https://sketch.com -->
    <title>Group 8</title>
    <desc>Created with Sketch.</desc>
    <defs>
        <polygon id="path-1" points="0.6377696 0.162515667 30.7112416 0.162515667 30.7112416 49.12 0.6377696 49.12"></polygon>
        <polygon id="path-3" points="0.225520889 0.1479504 36.0093556 0.1479504 36.0093556 40.2423424 0.225520889 40.2423424"></polygon>
    </defs>
    <g id="Page-1" stroke="none" stroke-width="1" fill="none" fill-rule="evenodd">
        <g id="Artboard-Copy" transform="translate(-454.000000, -348.000000)">
            <g id="Group-8" transform="translate(454.000000, 348.000000)">
                <g id="Group-39">
                    <path d="M126.88,150.229275 L126.88,150.469171 C126.88,151.355926 126.15732,151.84 125.035993,151.84 L110.601579,151.84 C109.559129,151.84 108.759704,151.355926 108.759704,150.469171 L108.759704,150.229275 C108.759704,148.21587 112.206824,147.489758 111.565152,143.942737 L105.952124,111.961715 L92.4002741,149.584557 C91.9206192,151.034638 91.2789476,151.758607 89.8357193,151.758607 C88.392491,151.758607 87.509926,151.113889 86.8682543,149.663808 L72.0330612,110.509493 L66.9018197,143.942737 C66.3411565,147.489758 69.7882763,148.21587 69.7882763,150.229275 L69.7882763,150.469171 C69.7882763,151.355926 69.1466047,151.84 68.0252781,151.84 L58.96513,151.84 C57.8416717,151.84 57.2,151.355926 57.2,150.469171 L57.2,150.229275 C57.2,148.21587 59.847695,147.489758 60.4083583,143.942737 L67.0617047,102.453728 C67.5456232,99.0694926 64.0963715,98.3455233 64.0963715,96.2507246 L64.0963715,96.0108294 C64.0963715,95.2054671 64.7380432,94.64 65.7804932,94.64 L74.5997479,94.64 C76.5247629,94.64 77.8891146,95.5267553 78.5286545,97.2981239 L91.5198409,135.244396 L104.349011,97.2981239 C104.98855,95.5267553 106.193017,94.64 108.037024,94.64 L117.257057,94.64 C118.22063,94.64 118.941178,95.1219322 118.941178,95.9272945 L118.941178,96.2507246 C118.941178,98.3455233 115.253165,99.0694926 115.894837,102.777158 L123.592765,143.942737 C124.234437,147.489758 126.88,148.21587 126.88,150.229275" id="Fill-1" fill="#FEFEFE"></path>
                    <path d="M159.486461,137.549761 C159.486461,128.704894 155.125845,115.889435 148.259646,115.889435 C143.415948,115.889435 140.830924,120.026098 140.830924,127.732196 C140.830924,136.007678 145.191541,149.310565 152.540822,149.310565 C156.901438,149.310565 159.486461,145.012145 159.486461,137.549761 M128.96,132.358443 C128.96,120.595482 138.570103,112.32 149.876359,112.32 C162.311952,112.32 171.6,121.24251 171.6,132.761757 C171.6,144.283161 162.878767,152.88 151.087283,152.88 C138.084874,152.88 128.96,143.63182 128.96,132.358443" id="Fill-3" fill="#FEFEFE"></path>
                    <path d="M208,119.671743 C208,123.058326 206.713222,126.041949 202.855024,126.041949 C196.583582,126.041949 199.398677,119.108027 195.055265,119.108027 C191.921681,119.108027 190.795216,123.542736 190.795216,127.975303 L190.795216,144.100156 C190.795216,147.48674 194.815864,148.129762 194.815864,150.146708 L194.815864,150.468219 C194.815864,151.35559 194.09125,151.84 193.046009,151.84 L178.173244,151.84 C177.046778,151.84 176.324302,151.35559 176.324302,150.468219 L176.324302,150.146708 C176.324302,148.129762 179.457885,147.48674 179.457885,144.100156 L179.457885,125.236028 C179.457885,121.686546 175.76,121.446484 175.76,119.431681 L175.76,119.108027 C175.76,118.299962 176.403389,117.65694 177.44863,117.17253 L187.097331,112.658514 C188.946273,111.771143 189.66875,112.739963 189.66875,114.270356 L189.66875,120.316908 C191.438605,115.157727 195.217715,112.334859 200.60423,112.334859 C205.347355,112.334859 208,115.560688 208,119.671743" id="Fill-5" fill="#FEFEFE"></path>
                    <g id="Group-9" transform="translate(209.040000, 103.760000)">
                        <mask id="mask-2" fill="white">
                            <use xlink:href="#path-1"></use>
                        </mask>
                        <g id="Clip-8"></g>
                        <path d="M6.0540896,35.3036823 L6.0540896,14.618169 L2.25406827,14.618169 C1.28471893,14.618169 0.6377696,13.9790457 0.6377696,13.0214223 L0.6377696,11.662489 C0.6377696,10.6263023 1.20304427,9.987179 2.25406827,9.987179 L4.27659093,9.987179 C8.80308693,9.987179 11.9561589,6.79156233 12.8459829,2.07988567 C13.0867083,0.882325667 13.8153323,0.162515667 14.7051563,0.162515667 L16.3214549,0.162515667 C17.4541536,0.162515667 18.0989536,0.882325667 18.0989536,2.07988567 L18.1806283,9.987179 L27.4786443,9.987179 C28.3663189,9.987179 29.0949429,10.7048657 29.0949429,11.662489 L29.0949429,13.0214223 C29.0949429,13.9790457 28.3663189,14.618169 27.4786443,14.618169 L18.1806283,14.618169 L18.1806283,35.4629323 C18.1806283,38.658549 19.9602763,40.5737957 22.3051989,40.5737957 C25.5377963,40.5737957 27.1540949,38.817799 27.8010443,36.9811157 C28.7703936,35.6221823 30.7112416,35.9428057 30.7112416,37.460989 C30.7112416,43.2109757 26.3459456,49.1202123 18.2623029,49.1202123 C10.9051349,49.1202123 6.0540896,44.4085357 6.0540896,35.3036823" id="Fill-7" fill="#FEFEFE" mask="url(#mask-2)"></path>
                    </g>
                    <path d="M252.323696,126.679698 C252.323696,129.194478 252.562399,131.547502 253.117963,133.654655 L263.369504,128.38138 C264.797495,127.652396 265.433332,126.274227 265.433332,124.568231 C265.433332,121.650137 263.369504,115.889435 259.077081,115.889435 C254.867041,115.889435 252.323696,120.513525 252.323696,126.679698 M276.637571,140.631769 C276.160166,145.335659 270.756613,152.88 260.507184,152.88 C249.463488,152.88 241.28,144.770588 241.28,132.276486 C241.28,120.513525 250.099325,112.32 260.507184,112.32 C270.915044,112.32 275.524329,118.486172 275.524329,123.841404 C275.524329,126.597741 274.174497,128.219624 272.028285,129.194478 L254.389636,137.388004 C256.455576,141.84818 260.110051,144.444918 264.877767,144.444918 C269.089919,144.444918 272.425419,142.255808 273.935795,139.741027 C274.888493,138.522459 276.71573,138.927929 276.637571,140.631769" id="Fill-10" fill="#FEFEFE"></path>
                    <path d="M325.52,150.151066 L325.52,150.47175 C325.52,151.275597 324.802374,151.84 323.683471,151.84 L309.868106,151.84 C308.751327,151.84 308.031578,151.275597 308.031578,150.47175 L308.031578,150.151066 C308.031578,148.141449 311.065565,147.497944 310.906329,143.959734 L310.108023,129.084289 C309.70887,120.47714 307.392508,116.941069 303.161062,116.941069 C298.846812,116.941069 296.371214,120.55838 296.371214,125.785523 L296.371214,144.040974 C296.371214,147.497944 299.806478,148.141449 299.806478,150.151066 L299.806478,150.47175 C299.806478,151.275597 299.086728,151.84 297.969949,151.84 L283.116361,151.84 C281.997459,151.84 281.279833,151.275597 281.279833,150.47175 L281.279833,150.151066 C281.279833,148.141449 284.712973,147.497944 284.712973,144.040974 L284.712973,125.30236 C284.712973,121.685048 280.8,121.362227 280.8,119.352609 L280.8,119.029788 C280.8,118.225941 281.439069,117.824017 282.396612,117.340854 L291.899851,112.678114 C293.736379,111.713925 294.615365,112.838456 294.615365,114.367048 L294.615365,118.869446 C296.770367,114.768971 301.003937,112.355292 306.434966,112.355292 C313.702523,112.355292 320.728041,116.699487 321.687706,129.484075 L322.645249,143.959734 C322.885165,147.497944 325.52,148.141449 325.52,150.151066" id="Fill-12" fill="#FEFEFE"></path>
                    <path d="M22.6250531,4.73722432 L22.6250531,4.41463968 C22.6250531,3.60602752 23.3537808,3.12 24.4899922,3.12 L39.7372169,3.12 C40.8712724,3.12 41.6,3.60602752 41.6,4.41463968 L41.6,4.73722432 C41.6,6.75875473 38.1956776,7.48779601 38.1956776,10.8856875 L38.1137497,36.5268652 C38.0318217,54.7270906 30.5720653,61.2798599 18.813247,61.36 C4.21713397,61.4411522 0,52.7055601 0,47.2044168 C0,43.6452329 2.18833895,41.2193964 5.59481731,41.2193964 C15.0833687,41.2193964 10.1375071,56.4260363 19.4622026,56.4260363 C23.4357087,56.4260363 25.7879036,51.4904913 25.7879036,43.6452329 L25.7879036,10.8856875 C25.7879036,7.48779601 22.6250531,6.75875473 22.6250531,4.73722432" id="Fill-14" fill="#FEFEFE"></path>
                    <path d="M75.2464612,46.027604 C75.2464612,37.1848942 70.8858449,24.3694353 64.0196455,24.3694353 C59.1759476,24.3694353 56.5909245,28.5060981 56.5909245,36.2121961 C56.5909245,44.4876784 60.9515408,57.7905647 68.3008218,57.7905647 C72.6614381,57.7905647 75.2464612,53.4899883 75.2464612,46.027604 M44.72,40.8362863 C44.72,29.0733255 54.3301027,20.8 65.6363585,20.8 C78.0719517,20.8 87.36,29.7225098 87.36,41.2417569 C87.36,52.7610039 78.6387674,61.36 66.847283,61.36 C53.8448741,61.36 44.72,52.1118196 44.72,40.8362863" id="Fill-16" fill="#FEFEFE"></path>
                    <path d="M91.52,51.9315126 C91.52,48.841268 93.6050391,47.4603825 96.3317928,47.4603825 C103.386388,47.4603825 100.661767,58.1897981 108.68,58.1897981 C111.967454,58.1897981 114.534312,56.4826 114.534312,52.8261708 C114.534312,42.0146369 92.2405963,48.7613107 92.2405963,32.7482253 C92.2405963,25.8394757 98.8965188,20.8 108.520104,20.8 C118.623377,20.8 125.03839,25.5131632 125.03839,30.5526389 C125.03839,32.910301 123.034365,34.7795748 120.467507,34.7795748 C113.813716,34.7795748 116.137533,24.1322777 109.161819,24.1322777 C105.953246,24.1322777 103.949221,26.6520156 103.949221,29.5780233 C103.949221,40.7137088 125.84,34.2112292 125.84,49.7359263 C125.84,56.3205243 119.424987,61.36 108.68,61.36 C98.3358181,61.36 91.52,56.9709883 91.52,51.9315126" id="Fill-18" fill="#FEFEFE"></path>
                    <path d="M141.043696,35.3060593 C141.043696,37.8065857 141.282399,40.146272 141.837963,42.2436261 L152.087392,37.000241 C153.517495,36.2753886 154.153332,34.902887 154.153332,33.2087053 C154.153332,30.3050066 152.087392,24.5791015 147.797081,24.5791015 C143.587041,24.5791015 141.043696,29.1769818 141.043696,35.3060593 M137.944786,15.3018484 C137.389221,14.3346637 137.706083,13.1251466 138.422191,12.4774975 L152.247935,1.83203186 C153.914629,0.459530255 155.425004,0.944194885 156.299543,2.71986884 L158.443643,7.15476466 C159.318182,8.76745404 158.762617,10.4637802 156.855108,10.9463003 L140.804993,16.1896854 C139.693864,16.5113655 138.580622,16.2711777 137.944786,15.3018484 M165.357571,49.1811928 C164.880166,53.8584209 159.476613,61.36 149.227184,61.36 C138.183488,61.36 130,53.2944085 130,40.8711244 C130,29.1769818 138.819325,21.0298981 149.227184,21.0298981 C159.635044,21.0298981 164.244329,27.1589756 164.244329,32.4838529 C164.244329,35.2245671 162.894497,36.839401 160.748285,37.8065857 L143.109636,45.9536695 C145.175576,50.3907098 148.830051,52.9705839 153.597767,52.9705839 C157.809919,52.9705839 161.145419,50.7938822 162.655795,48.2933558 C163.608493,47.0838388 165.43573,47.4870111 165.357571,49.1811928" id="Fill-20" fill="#FEFEFE"></path>
                    <path d="M200.313305,45.2334687 C200.313305,35.0397714 196.848645,24.278204 190.480699,24.278204 C187.097459,24.278204 184.436292,26.9497744 183.954196,30.8323706 L183.954196,46.2853189 C183.954196,52.6760078 187.903094,57.773932 192.17339,57.773932 C197.330741,57.773932 200.313305,53.3234657 200.313305,45.2334687 M212.16,40.3786101 C212.16,52.9190734 203.456568,61.252136 193.381842,61.252136 C189.432944,61.252136 186.371102,60.120698 183.954196,58.0965854 L183.954196,70.1530686 C183.954196,73.6312726 187.337435,74.2787304 187.337435,76.3006919 L187.337435,76.6254964 C187.337435,77.5160199 186.613221,78 185.484046,78 L170.896906,78 C169.769873,78 169.043516,77.5160199 169.043516,76.6254964 L169.043516,76.3006919 C169.043516,74.2787304 172.186779,73.6312726 172.186779,70.1530686 L172.186779,33.7448556 C172.186779,30.4279783 168.48,30.1849128 168.48,28.0812124 L168.48,27.6768201 C168.48,26.8680355 169.124937,26.2205776 170.09127,25.7365975 L179.118242,21.2861312 C181.374449,20.1525421 182.180084,21.2043923 182.180084,22.7402226 L182.100806,26.1409898 C184.275593,22.7402226 188.305912,20.8 193.302565,20.8 C202.650933,20.8 212.16,27.5950812 212.16,40.3786101" id="Fill-22" fill="#FEFEFE"></path>
                    <path d="M261.04,58.6448468 L261.04,58.9629139 C261.04,59.840779 260.317227,60.32 259.269419,60.32 L245.275842,60.32 C244.230173,60.32 243.505261,59.840779 243.505261,58.9629139 L243.505261,58.6448468 C243.505261,56.6516266 246.56101,56.013372 246.400631,52.5846092 L245.596599,37.2707406 C245.194583,29.2957393 242.863746,25.7842789 238.599811,25.7842789 C234.256755,25.7842789 231.763401,29.3741958 231.763401,34.5586888 L231.763401,52.6630657 C231.763401,56.013372 235.221166,56.6516266 235.221166,58.6448468 L235.221166,58.9629139 C235.221166,59.7623224 234.417134,60.32 233.290206,60.32 L218.411338,60.32 C217.286549,60.32 216.561637,59.7623224 216.561637,58.9629139 L216.561637,58.6448468 C216.561637,56.6516266 219.940282,56.013372 219.940282,52.6630657 L219.940282,12.9449721 C219.940282,9.43563221 216.32,9.11756515 216.32,7.20280147 L216.32,6.96319096 C216.32,6.08532588 216.963653,5.44707132 217.928064,4.96997073 L228.545135,0.343155274 C230.315716,-0.454132815 231.442643,0.184121746 231.442643,1.77869793 L231.361385,25.7058224 C233.773481,22.8347371 237.393763,21.2401609 241.897197,21.2401609 C249.216881,21.2401609 256.294929,25.5467889 257.09896,37.5888077 L258.14463,52.5040322 C258.465387,56.013372 261.04,56.6516266 261.04,58.6448468" id="Fill-24" fill="#FEFEFE"></path>
                    <path d="M265.303239,9.05847731 C265.303239,5.04670597 268.574295,2.08 273.3972,2.08 C278.220104,2.08 281.32815,5.04670597 281.32815,9.05847731 C281.32815,13.1491618 278.220104,16.1180005 273.3972,16.1180005 C268.574295,16.1180005 265.303239,13.1491618 265.303239,9.05847731 M264.16,58.9550167 L264.16,58.6350987 C264.16,56.6302794 267.265873,55.9861779 267.265873,52.5374622 L267.265873,34.4087772 C267.265873,30.8790156 264.16,29.996042 264.16,28.2322276 L264.16,27.98909 C264.16,27.2682082 264.812038,26.8672443 265.877032,26.3063215 L276.094462,21.3326634 C278.137513,20.3686439 279.445935,21.4926224 279.445935,22.9365188 L279.445935,52.5374622 C279.445935,55.9861779 282.88,56.6302794 282.88,58.6350987 L282.88,58.9550167 C282.88,59.7569444 282.145371,60.32 280.999958,60.32 L265.95745,60.32 C264.894629,60.32 264.16,59.7569444 264.16,58.9550167" id="Fill-26" fill="#FEFEFE"></path>
                    <path d="M332.8,59.6710153 L332.8,59.9938465 C332.8,60.7977177 332.082374,61.36 330.963471,61.36 L317.148106,61.36 C316.031327,61.36 315.311578,60.7977177 315.311578,59.9938465 L315.311578,59.6710153 C315.311578,57.6613373 318.345565,57.0178127 318.186329,53.4794966 L317.388023,38.6036034 C316.98887,29.9983331 314.672508,26.460017 310.441062,26.460017 C306.126812,26.460017 303.651214,30.0795754 303.651214,35.3068762 L303.651214,53.5607389 C303.651214,57.0178127 307.086478,57.6613373 307.086478,59.6710153 L307.086478,59.9938465 C307.086478,60.7977177 306.366728,61.36 305.249949,61.36 L290.396361,61.36 C289.277459,61.36 288.559833,60.7977177 288.559833,59.9938465 L288.559833,59.6710153 C288.559833,57.6613373 291.992973,57.0178127 291.992973,53.5607389 L291.992973,34.8236983 C291.992973,31.2041399 288.08,30.8834466 288.08,28.8716307 L288.08,28.5509374 C288.08,27.7470662 288.719069,27.3451306 289.676612,26.8619526 L299.179851,22.199072 C301.016379,21.2327162 301.895365,22.3594187 301.895365,23.8859188 L301.895365,28.3905907 C304.050367,24.2899924 308.283937,21.8762408 313.714966,21.8762408 C320.982523,21.8762408 328.008041,26.2184281 328.967706,39.003401 L329.925249,53.4794966 C330.165165,57.0178127 332.8,57.6613373 332.8,59.6710153" id="Fill-28" fill="#FEFEFE"></path>
                    <g id="Group-32" transform="translate(335.680000, 21.840000)">
                        <mask id="mask-4" fill="white">
                            <use xlink:href="#path-3"></use>
                        </mask>
                        <g id="Clip-31"></g>
                        <path d="M11.4018231,14.3406744 C11.4018231,16.8265864 11.643392,19.1525984 12.2056276,21.2376944 L22.5802631,16.0249544 C24.0254009,15.3043384 24.668872,13.9398584 24.668872,12.2555784 C24.668872,9.3688504 22.5802631,3.6764104 18.2362987,3.6764104 C13.9757076,3.6764104 11.4018231,8.2474184 11.4018231,14.3406744 M36.0076453,28.1347144 C35.5245076,32.7846064 30.056072,40.2423424 19.6835742,40.2423424 C8.507272,40.2423424 0.225520889,32.2238904 0.225520889,19.8732144 C0.225520889,8.2474184 9.15074311,0.1479504 19.6835742,0.1479504 C30.2164053,0.1479504 34.8810364,6.2412064 34.8810364,11.5349624 C34.8810364,14.2596584 33.5149964,15.8650544 31.3430142,16.8265864 L13.4925698,24.9260544 C15.5833164,29.3371624 19.281672,31.9019584 24.1066364,31.9019584 C28.3693653,31.9019584 31.7449164,29.7379784 33.2734276,27.2520664 C34.2375653,26.0496184 36.0867431,26.4504344 36.0076453,28.1347144" id="Fill-30" fill="#FEFEFE" mask="url(#mask-4)"></path>
                    </g>
                    <path d="M8.39353071,107.600337 L14.3899602,107.600337 L11.3917455,98.5004986 L8.39353071,107.600337 Z M10.1092473,96.72 L12.8672617,96.72 L18.72,114.4 L16.6396936,114.4 L14.9475681,109.30409 L7.81233171,109.30409 L6.14379732,114.4 L4.16,114.4 L10.1092473,96.72 Z" id="Fill-33" fill="#FEFEFE"></path>
                    <polygon id="Fill-35" fill="#FEFEFE" points="21.84 96.72 24.6480339 96.72 33.2991588 111.332368 33.2991588 96.72 35.36 96.72 35.36 114.4 32.87597 114.4 23.9030453 99.2416421 23.9030453 114.4 21.84 114.4"></polygon>
                    <path d="M44.0593079,112.643621 C48.5746789,112.643621 50.8312764,109.924634 50.8312764,105.59618 L50.8312764,105.398834 C50.8312764,101.320352 48.86845,98.4500657 44.035371,98.4500657 L41.6547368,98.4500657 L41.6547368,112.643621 L44.0593079,112.643621 Z M39.52,96.72 L44.1572316,96.72 C50.1936842,96.72 53.04,100.478343 53.04,105.398834 L53.04,105.622493 C53.04,110.516671 50.241558,114.4 44.1071817,114.4 L39.52,114.4 L39.52,96.72 Z" id="Fill-37" fill="#FEFEFE"></path>
                </g>
                <g id="Group-4" transform="translate(149.000000, 202.000000)">
                    <path d="M72.0185002,63.3280782 C59.7864202,54.3554382 47.1914602,44.9810382 39.7329802,31.7726382" id="Stroke-219" stroke="#ED3124" stroke-width="2.16"></path>
                    <path d="M17.7873802,27.0532542 C29.1662602,38.2830942 42.9297802,47.0850942 57.8985802,52.7032542" id="Stroke-221" stroke="#ED3124" stroke-width="2.16"></path>
                    <path d="M21.7181482,42.3968142 C23.2193482,41.9129742 24.8415082,42.1073742 26.4053482,42.3082542 C30.8657482,42.8763342 35.3283082,43.4444142 39.7908682,44.0124942" id="Stroke-223" stroke="#ED3124" stroke-width="2.16"></path>
                    <path d="M28.5642682,15.4579422 C28.5599482,17.5337022 28.5534682,19.6094622 28.5469882,21.6830622 C28.5405082,23.8711422 28.5361882,26.0657022 28.8342682,28.2321822 C29.6723482,34.2823422 32.9836282,39.9523422 37.8414682,43.6502622" id="Stroke-225" stroke="#ED3124" stroke-width="2.16"></path>
                    <path d="M22.9871482,42.5212302 C23.9159482,43.1951502 24.3889882,44.3593902 24.4861882,45.4998702 C24.5855482,46.6425102 24.3565882,47.7873102 24.1276282,48.9105102 C24.0844282,49.1265102 24.0217882,49.3684302 23.8273882,49.4699502 C23.6545882,49.5606702 23.4429082,49.5001902 23.2593082,49.4353902 C22.6869082,49.2301902 22.1274682,48.9645102 21.5248282,48.8867502 C20.9200282,48.8089902 20.2417882,48.9601902 19.8767482,49.4505102 C19.6499482,49.7550702 19.5765082,50.1438702 19.4166682,50.4894702 C19.0667482,51.2476302 18.2610682,51.7681902 17.4273082,51.7790997 C16.5957082,51.7876302 15.7770682,51.2843502 15.4098682,50.5369902 C14.2110682,51.3945102 12.3621082,51.1547502 11.4225082,50.0207502 C11.1503482,49.6902702 10.9516282,49.3057902 10.6708282,48.9839502 C10.3317082,48.5973102 9.88458824,48.3165102 9.53250824,47.9385102 C8.23434824,46.5474702 8.79162824,43.9165902 10.5433882,43.1757102 C6.10026824,38.9291502 22.2397882,33.6609102 20.2957882,39.3849102 C20.8984282,38.1040302 22.2160282,39.0306702 22.7430682,39.8104302 C22.9201882,40.0717902 23.3737882,42.8020302 22.9871482,42.5212302" id="Fill-227" fill="#ED3124"></path>
                    <path d="M16.5419242,28.4833902 C15.1228042,28.7231502 13.7296042,27.7965102 12.8980042,26.6214702 C12.2910442,27.9088302 11.6538442,29.2372302 10.5781642,30.1703502 C9.50464424,31.1056302 7.86088424,31.5419502 6.63184424,30.8226702 C5.83912424,30.3582702 5.35960424,29.5180302 4.91680424,28.7145102 C3.41128424,29.5374702 1.30312424,28.9607502 0.430484236,27.4854702 C-0.444315764,26.0080302 0.0632842363,23.8825902 1.50832424,22.9602702 C1.27288424,20.5972302 1.80208424,17.9188302 3.73744424,16.5429102 C4.68784424,15.8646702 5.92120424,15.5449902 6.64048424,14.6248302 C7.03576424,14.1193902 7.40512424,13.3763502 8.04232424,13.4519502 C8.48296424,13.5037902 8.75944424,13.9465902 9.15256424,14.1496302 C9.70336424,14.4369102 10.3751242,14.2187502 10.9345642,13.9487502 C11.4940042,13.6809102 12.0815242,13.3590702 12.6949642,13.4476302 C13.3084042,13.5361902 13.8332842,14.3051502 13.4423242,14.7846702 C14.3214442,14.2036302 15.5591242,14.2230702 16.4188042,14.8365102 C17.2784842,15.4456302 17.7061642,16.6055502 17.4448042,17.6293902 C18.9697642,19.2061902 19.6652842,21.5389902 19.2570442,23.6946702 C19.1468842,24.2778702 18.6738442,24.6342702 18.5248042,25.1526702 C18.4038442,25.5695502 18.5593642,25.9907502 18.4535242,26.4033102 C18.2008042,27.3904302 17.6478442,28.2976302 16.5419242,28.4833902" id="Fill-229" fill="#ED3124"></path>
                    <path d="M23.9921962,12.1168542 C22.8085162,11.9786142 21.8991562,10.8878142 21.6529162,9.72141421 C21.4066762,8.55501421 21.7004362,7.33893421 22.1237962,6.22221421 C22.0395562,6.50733421 21.6831562,6.67797421 21.4088362,6.56565421 C21.3505162,5.06445421 22.1129962,3.55893421 23.3571562,2.71437421 C24.5991562,1.87413421 26.2817962,1.72293421 27.6533962,2.33205421 C28.1696362,1.73157421 28.6858762,1.13109421 29.2042762,0.530614207 C29.3727562,0.334054207 29.5541962,0.131014207 29.7982762,0.0446142072 C30.5888362,-0.229705793 31.1871562,0.841654207 31.9949962,1.06413421 C33.8050762,0.709894207 35.7253162,2.34717421 35.6605162,4.18965421 C35.5935562,3.93477421 36.0449962,3.94341421 36.2437162,4.11621421 C37.6736362,5.33445421 37.9004362,7.72557421 36.7253962,9.19221421 C37.3388362,9.23541421 37.8053962,9.84885421 37.8464362,10.4644542 C37.8896362,11.0822142 37.5937162,11.6740542 37.2113962,12.1600542 C36.4705162,13.0996542 35.0211562,13.7303742 34.0966762,12.9700542 C34.3321162,13.7282142 34.4768362,14.6051742 34.0556362,15.2812542 C33.6322762,15.9530142 32.4248362,16.0890942 32.1181162,15.3525342 C32.4226762,16.0804542 31.3016362,17.1626142 30.7443562,17.4045342 C29.6405962,17.8905342 28.6815562,17.3721342 27.9190762,16.5578142 C26.6446762,15.1948542 24.4544362,14.0500542 23.9921962,12.1168542" id="Fill-231" fill="#ED3124"></path>
                    <path d="M38.0954842,33.6006462 C37.1710042,33.1232862 36.6115642,32.1685662 36.1039642,31.2592062 C35.6892442,31.9871262 34.5530842,31.6739262 33.9223642,31.1252862 C31.7278042,29.2180062 31.5463642,25.4380062 33.5486842,23.3276862 C34.3586842,22.4744862 35.8123642,21.9323262 36.6677242,22.7423262 C36.9074842,21.9215262 37.1602042,21.0791262 37.6915642,20.4116862 C38.2250842,19.7420862 39.1128442,19.2798462 39.9379642,19.5023262 C40.2943642,19.5995262 40.6442842,19.8133662 41.0071642,19.7356062 C41.2620442,19.6816062 41.4607642,19.4893662 41.6832442,19.3532862 C42.4781242,18.8737662 43.5538042,19.1632062 44.2471642,19.7852862 C44.9362042,20.4030462 45.3314842,21.2800062 45.7051642,22.1267262 C45.9535642,21.9366462 46.2019642,21.7465662 46.4503642,21.5543262 C47.9753242,22.9194462 48.2755642,25.4509662 47.1113242,27.1314462 C47.6858842,27.7038462 48.2755642,28.2978462 48.5822842,29.0495262 C48.8911642,29.7990462 48.8436442,30.7559262 48.2561242,31.3132062 C47.6664442,31.8704862 46.5000442,31.7344062 46.2386842,30.9676062 C46.5043642,31.4104062 46.7765242,31.8748062 46.8218842,32.3910462 C46.8650842,32.9072862 46.6080442,33.4883262 46.1134042,33.6416862 C45.8326042,33.7280862 45.5280442,33.6632862 45.2407642,33.6006462 C44.1240442,33.3522462 41.9791642,32.4277662 40.8905242,32.7560862 C39.8278042,33.0779262 39.5945242,34.3717662 38.0954842,33.6006462" id="Fill-233" fill="#ED3124"></path>
                    <path d="M27.4250842,11.3552382 C26.8829242,11.0593182 26.4660442,10.5819582 26.0858842,10.0937982 C24.4226842,7.96619821 28.5158842,3.49715821 30.8875642,6.31595821 C32.8402042,8.63795821 30.4642042,13.0162782 27.4250842,11.3552382" id="Fill-235" fill="#F9C9C8"></path>
                    <path d="M9.24026024,24.1571262 C6.60938024,21.9107262 8.08466024,18.5994462 11.3311402,18.5821662 C11.6616202,18.5800062 12.0050602,18.6167262 12.2858602,18.7916862 C12.4910602,18.9169662 12.6465802,19.1092062 12.7934602,19.3014462 C13.0742602,19.6686462 13.3399402,20.0488062 13.5905002,20.4397662 C13.7978602,20.7702462 14.0030602,21.1288062 14.0117002,21.5176062 C14.0289802,22.1332062 13.5689002,22.6602462 13.0677802,23.0188062 C12.2750602,23.5825662 11.3009002,24.8159262 10.2338602,24.6582462 C9.86234024,24.6064062 9.52538024,24.4012062 9.24026024,24.1571262" id="Fill-237" fill="#F9C9C8"></path>
                    <path d="M15.7772842,41.9116782 C16.7730442,42.0542382 17.7126442,42.5531982 18.3908842,43.2962382 C18.6155242,43.5403182 18.8164042,43.8211182 18.8876842,44.1451182 C19.0064842,44.6743182 18.7580842,45.2294382 18.3995242,45.6376782 C17.5117642,46.6485582 15.8831242,46.9120782 14.7167242,46.2359982 C14.3668042,46.0307982 14.0471242,45.7348782 13.9348042,45.3439182 C13.8181642,44.9291982 13.9542442,44.4863982 14.1076042,44.0846382 C14.4078442,43.2962382 14.8268842,42.4775982 15.5828842,42.0995982 C16.3367242,41.7215982 17.4772042,42.0650382 17.6003242,42.9009582" id="Fill-239" fill="#F9C9C8"></path>
                    <path d="M43.9045882,27.4329822 C43.3905082,28.9190622 40.7077882,29.4439422 39.6277882,28.3445022 C38.0099482,26.7029022 38.9668282,24.2448222 41.1009082,23.7458622 C41.7964282,23.5838622 42.5286682,23.9769822 42.9693082,24.5407422 C43.4121082,25.1045022 43.6259482,25.8065022 43.8268282,26.4912222 C43.9175482,26.8001022 44.0082682,27.1305822 43.9045882,27.4329822" id="Fill-241" fill="#F9C9C8"></path>
                </g>
            </g>
        </g>
    </g>
</svg>