<?xml version="1.0" encoding="UTF-8"?>
<svg width="465px" height="192px" viewBox="0 0 465 192" version="1.1" xmlns="http://www.w3.org/2000/svg" xmlns:xlink="http://www.w3.org/1999/xlink">
    <!-- Generator: Sketch 57.1 (83088) - https://sketch.com -->
    <title>Group 39</title>
    <desc>Created with Sketch.</desc>
    <defs>
        <polygon id="path-1" points="0.797212 0.203144583 38.389052 0.203144583 38.389052 61.4 0.797212 61.4"></polygon>
        <polygon id="path-3" points="0.281901111 0.184938 45.0116944 0.184938 45.0116944 50.302928 0.281901111 50.302928"></polygon>
    </defs>
    <g id="Page-1" stroke="none" stroke-width="1" fill="none" fill-rule="evenodd">
        <g id="Artboard-Copy" transform="translate(-407.000000, -343.000000)">
            <g id="Group-39" transform="translate(407.000000, 343.000000)">
                <path d="M158.6,187.786594 L158.6,188.086463 C158.6,189.194907 157.69665,189.8 156.294992,189.8 L138.251973,189.8 C136.948911,189.8 135.94963,189.194907 135.94963,188.086463 L135.94963,187.786594 C135.94963,185.269837 140.25853,184.362198 139.45644,179.928422 L132.440155,139.952144 L115.500343,186.980696 C114.900774,188.793297 114.098684,189.698259 112.294649,189.698259 C110.490614,189.698259 109.387407,188.892361 108.585318,187.07976 L90.0413266,138.136866 L83.6272747,179.928422 C82.9264456,184.362198 87.2353454,185.269837 87.2353454,187.786594 L87.2353454,188.086463 C87.2353454,189.194907 86.4332558,189.8 85.0315976,189.8 L73.7064125,189.8 C72.3020896,189.8 71.5,189.194907 71.5,188.086463 L71.5,187.786594 C71.5,185.269837 74.8096188,184.362198 75.5104479,179.928422 L83.8271309,128.06716 C84.432029,123.836866 80.1204644,122.931904 80.1204644,120.313406 L80.1204644,120.013537 C80.1204644,119.006834 80.922554,118.3 82.2256165,118.3 L93.2496849,118.3 C95.6559536,118.3 97.3613933,119.408444 98.1608181,121.622655 L114.399801,169.055495 L130.436263,121.622655 C131.235688,119.408444 132.741271,118.3 135.04628,118.3 L146.571321,118.3 C147.775788,118.3 148.676473,118.902415 148.676473,119.909118 L148.676473,120.313406 C148.676473,122.931904 144.066457,123.836866 144.868546,128.471447 L154.490956,179.928422 C155.293046,184.362198 158.6,185.269837 158.6,187.786594" id="Fill-1" fill="#FEFEFE"></path>
                <path d="M199.358077,171.937201 C199.358077,160.881118 193.907306,144.861794 185.324557,144.861794 C179.269935,144.861794 176.038656,150.032623 176.038656,159.665245 C176.038656,170.009598 181.489426,186.638206 190.676027,186.638206 C196.126798,186.638206 199.358077,181.265181 199.358077,171.937201 M161.2,165.448054 C161.2,150.744353 173.212628,140.4 187.345448,140.4 C202.88994,140.4 214.5,151.553137 214.5,165.952196 C214.5,180.353951 203.598459,191.1 188.859104,191.1 C172.606093,191.1 161.2,179.539775 161.2,165.448054" id="Fill-3" fill="#FEFEFE"></path>
                <path d="M260,149.589678 C260,153.822908 258.391527,157.552437 253.568779,157.552437 C245.729477,157.552437 249.248346,148.885033 243.819081,148.885033 C239.902102,148.885033 238.49402,154.428421 238.49402,159.969128 L238.49402,180.125195 C238.49402,184.358425 243.51983,185.162202 243.51983,187.683385 L243.51983,188.085274 C243.51983,189.194487 242.614062,189.8 241.307512,189.8 L222.716555,189.8 C221.308473,189.8 220.405377,189.194487 220.405377,188.085274 L220.405377,187.683385 C220.405377,185.162202 224.322356,184.358425 224.322356,180.125195 L224.322356,156.545035 C224.322356,152.108182 219.7,151.808105 219.7,149.289601 L219.7,148.885033 C219.7,147.874953 220.504237,147.071175 221.810787,146.465662 L233.871663,140.823142 C236.182842,139.713929 237.085938,140.924954 237.085938,142.837945 L237.085938,150.396135 C239.298256,143.947159 244.022144,140.418574 250.755287,140.418574 C256.684194,140.418574 260,144.450859 260,149.589678" id="Fill-5" fill="#FEFEFE"></path>
                <g id="Group-9" transform="translate(261.300000, 129.700000)">
                    <mask id="mask-2" fill="white">
                        <use xlink:href="#path-1"></use>
                    </mask>
                    <g id="Clip-8"></g>
                    <path d="M7.567612,44.1296029 L7.567612,18.2727113 L2.81758533,18.2727113 C1.60589867,18.2727113 0.797212,17.4738071 0.797212,16.2767779 L0.797212,14.5781113 C0.797212,13.2828779 1.50380533,12.4839738 2.81758533,12.4839738 L5.34573867,12.4839738 C11.0038587,12.4839738 14.9451987,8.48945292 16.0574787,2.59985708 C16.3583853,1.10290708 17.2691653,0.203144583 18.3814453,0.203144583 L20.4018187,0.203144583 C21.817692,0.203144583 22.623692,1.10290708 22.623692,2.59985708 L22.7257853,12.4839738 L34.3483053,12.4839738 C35.4578987,12.4839738 36.3686787,13.3810821 36.3686787,14.5781113 L36.3686787,16.2767779 C36.3686787,17.4738071 35.4578987,18.2727113 34.3483053,18.2727113 L22.7257853,18.2727113 L22.7257853,44.3286654 C22.7257853,48.3231863 24.9503453,50.7172446 27.8814987,50.7172446 C31.9222453,50.7172446 33.9426187,48.5222488 34.7513053,46.2263946 C35.962992,44.5277279 38.389052,44.9285071 38.389052,46.8262363 C38.389052,54.0137196 32.932432,61.4002654 22.8278787,61.4002654 C13.6314187,61.4002654 7.567612,55.5106696 7.567612,44.1296029" id="Fill-7" fill="#FEFEFE" mask="url(#mask-2)"></path>
                </g>
                <path d="M315.40462,158.349622 C315.40462,161.493098 315.702998,164.434377 316.397454,167.068319 L329.21188,160.476726 C330.996869,159.565495 331.791665,157.842784 331.791665,155.710289 C331.791665,152.062671 329.21188,144.861794 323.846351,144.861794 C318.583802,144.861794 315.40462,150.641907 315.40462,158.349622 M345.796964,175.789711 C345.200207,181.669574 338.445766,191.1 325.63398,191.1 C311.829361,191.1 301.6,180.963235 301.6,165.345608 C301.6,150.641907 312.624156,140.4 325.63398,140.4 C338.643805,140.4 344.405411,148.107716 344.405411,154.801755 C344.405411,158.247176 342.718121,160.274529 340.035357,161.493098 L317.987045,171.735005 C320.56947,177.310225 325.137563,180.556147 331.097209,180.556147 C336.362398,180.556147 340.531774,177.81976 342.419743,174.676284 C343.610616,173.153073 345.894663,173.659912 345.796964,175.789711" id="Fill-10" fill="#FEFEFE"></path>
                <path d="M406.9,187.688833 L406.9,188.089687 C406.9,189.094496 406.002967,189.8 404.604339,189.8 L387.335133,189.8 C385.939159,189.8 385.039472,189.094496 385.039472,188.089687 L385.039472,187.688833 C385.039472,185.176811 388.831957,184.372429 388.632911,179.949668 L387.635028,161.355361 C387.136087,150.596425 384.240635,146.176336 378.951327,146.176336 C373.558515,146.176336 370.464017,150.697975 370.464017,157.231904 L370.464017,180.051217 C370.464017,184.372429 374.758097,185.176811 374.758097,187.688833 L374.758097,188.089687 C374.758097,189.094496 373.85841,189.8 372.462437,189.8 L353.895452,189.8 C352.496824,189.8 351.599791,189.094496 351.599791,188.089687 L351.599791,187.688833 C351.599791,185.176811 355.891217,184.372429 355.891217,180.051217 L355.891217,156.62795 C355.891217,152.106311 351,151.702784 351,149.190762 L351,148.787235 C351,147.782426 351.798837,147.280022 352.995765,146.676068 L364.874814,140.847643 C367.170474,139.642407 368.269207,141.04807 368.269207,142.95881 L368.269207,148.586808 C370.962959,143.461214 376.254921,140.444116 383.043707,140.444116 C392.128154,140.444116 400.910051,145.874359 402.109633,161.855093 L403.306561,179.949668 C403.606457,184.372429 406.9,185.176811 406.9,187.688833" id="Fill-12" fill="#FEFEFE"></path>
                <path d="M28.2813164,5.9215304 L28.2813164,5.51829961 C28.2813164,4.5075344 29.192226,3.9 30.6124903,3.9 L49.6715211,3.9 C51.0890904,3.9 52,4.5075344 52,5.51829961 L52,5.9215304 C52,8.44844341 47.744597,9.35974502 47.744597,13.6071094 L47.6421871,45.6585815 C47.5397771,68.4088632 38.2150816,76.5998248 23.5165587,76.7 C5.27141747,76.8014402 0,65.8819502 0,59.005521 C0,54.5565411 2.73542368,51.5242455 6.99352164,51.5242455 C18.8542109,51.5242455 12.6718839,70.5325454 24.3277533,70.5325454 C29.2946359,70.5325454 32.2348795,64.3631142 32.2348795,54.5565411 L32.2348795,13.6071094 C32.2348795,9.35974502 28.2813164,8.44844341 28.2813164,5.9215304" id="Fill-14" fill="#FEFEFE"></path>
                <path d="M94.0580765,57.5345049 C94.0580765,46.4811177 88.6073061,30.4617941 80.0245569,30.4617941 C73.9699345,30.4617941 70.7386556,35.6326226 70.7386556,45.2652451 C70.7386556,55.609598 76.189426,72.2382059 85.3760272,72.2382059 C90.8267976,72.2382059 94.0580765,66.8624854 94.0580765,57.5345049 M55.9,51.0453579 C55.9,36.3416569 67.9126284,26 82.0454481,26 C97.5899396,26 109.2,37.1531373 109.2,51.5521961 C109.2,65.9512549 98.2984592,76.7 83.5591037,76.7 C67.3060926,76.7 55.9,65.1397745 55.9,51.0453579" id="Fill-16" fill="#FEFEFE"></path>
                <path d="M114.4,64.9143908 C114.4,61.0515851 117.006299,59.3254782 120.414741,59.3254782 C129.232985,59.3254782 125.827208,72.7372476 135.85,72.7372476 C139.959318,72.7372476 143.16789,70.60325 143.16789,66.0327135 C143.16789,52.5182961 115.300745,60.9516383 115.300745,40.9352816 C115.300745,32.2993447 123.620649,26 135.65013,26 C148.279221,26 156.297987,31.891454 156.297987,38.1907987 C156.297987,41.1378763 153.792956,43.4744685 150.584383,43.4744685 C142.267145,43.4744685 145.171916,30.1653471 136.452274,30.1653471 C132.441558,30.1653471 129.936526,33.3150194 129.936526,36.9725292 C129.936526,50.892136 157.3,42.7640364 157.3,62.1699078 C157.3,70.4006553 149.281234,76.7 135.85,76.7 C122.919773,76.7 114.4,71.2137354 114.4,64.9143908" id="Fill-18" fill="#FEFEFE"></path>
                <path d="M176.30462,44.1325742 C176.30462,47.2582321 176.602998,50.18284 177.297454,52.8045326 L190.10924,46.2503013 C191.896869,45.3442357 192.691665,43.6286087 192.691665,41.5108816 C192.691665,37.8812583 190.10924,30.7238768 184.746351,30.7238768 C179.483802,30.7238768 176.30462,36.4712273 176.30462,44.1325742 M172.430982,19.1273105 C171.736526,17.9183296 172.132604,16.4064333 173.027739,15.5968718 L190.309919,2.29003983 C192.393286,0.574412818 194.281255,1.18024361 195.374429,3.39983605 L198.054553,8.94345582 C199.147727,10.9593176 198.453271,13.0797253 196.068885,13.6828754 L176.006241,20.2371067 C174.61733,20.6392068 173.225778,20.3389721 172.430982,19.1273105 M206.696964,61.476491 C206.100207,67.3230261 199.345766,76.7 186.53398,76.7 C172.729361,76.7 162.5,66.6180107 162.5,51.0889056 C162.5,36.4712273 173.524156,26.2873726 186.53398,26.2873726 C199.543805,26.2873726 205.305411,33.9487195 205.305411,40.6048161 C205.305411,44.0307088 203.618121,46.0492512 200.935357,47.2582321 L178.887045,57.4420868 C181.46947,62.9883873 186.037563,66.2132299 191.997209,66.2132299 C197.262398,66.2132299 201.431774,63.4923527 203.319743,60.3666947 C204.510616,58.8547984 206.794663,59.3587639 206.696964,61.476491" id="Fill-20" fill="#FEFEFE"></path>
                <path d="M250.391632,56.5418359 C250.391632,43.7997142 246.060806,30.347755 238.100873,30.347755 C233.871824,30.347755 230.545364,33.687218 229.942745,38.5404633 L229.942745,57.8566486 C229.942745,65.8450098 234.878868,72.217415 240.216737,72.217415 C246.663426,72.217415 250.391632,66.6543321 250.391632,56.5418359 M265.2,50.4732626 C265.2,66.1488418 254.32071,76.56517 241.727303,76.56517 C236.79118,76.56517 232.963877,75.1508724 229.942745,72.6207318 L229.942745,87.6913357 C229.942745,92.0390907 234.171794,92.8484131 234.171794,95.3758649 L234.171794,95.7818705 C234.171794,96.8950248 233.266526,97.5 231.855057,97.5 L213.621132,97.5 C212.212342,97.5 211.304395,96.8950248 211.304395,95.7818705 L211.304395,95.3758649 C211.304395,92.8484131 215.233474,92.0390907 215.233474,87.6913357 L215.233474,42.1810695 C215.233474,38.0349729 210.6,37.7311409 210.6,35.1015155 L210.6,34.5960251 C210.6,33.5850444 211.406171,32.775722 212.614088,32.1707468 L223.897802,26.607664 C226.718061,25.1906776 227.725105,26.5054904 227.725105,28.4252783 L227.626008,32.6762372 C230.344491,28.4252783 235.38239,26 241.628206,26 C253.313666,26 265.2,34.4938515 265.2,50.4732626" id="Fill-22" fill="#FEFEFE"></path>
                <path d="M326.3,73.3060585 L326.3,73.7036424 C326.3,74.8009737 325.396533,75.4 324.086774,75.4 L306.594802,75.4 C305.287716,75.4 304.381576,74.8009737 304.381576,73.7036424 L304.381576,73.3060585 C304.381576,70.8145333 308.201262,70.0167151 308.000789,65.7307615 L306.995749,46.5884257 C306.493229,36.6196741 303.579682,32.2303487 298.249763,32.2303487 C292.820944,32.2303487 289.704251,36.7177447 289.704251,43.198361 L289.704251,65.8288321 C289.704251,70.0167151 294.026457,70.8145333 294.026457,73.3060585 L294.026457,73.7036424 C294.026457,74.702903 293.021417,75.4 291.612758,75.4 L273.014173,75.4 C271.608186,75.4 270.702047,74.702903 270.702047,73.7036424 L270.702047,73.3060585 C270.702047,70.8145333 274.925353,70.0167151 274.925353,65.8288321 L274.925353,16.1812151 C274.925353,11.7945403 270.4,11.3969564 270.4,9.00350184 L270.4,8.70398869 C270.4,7.60665735 271.204567,6.80883915 272.41008,6.21246341 L285.681418,0.428944093 C287.894644,-0.567666019 289.303304,0.230152182 289.303304,2.22337241 L289.201731,32.132278 C292.216851,28.5434214 296.742203,26.5502012 302.371496,26.5502012 C311.521102,26.5502012 320.368661,31.9334861 321.373701,46.9860096 L322.680787,65.6300402 C323.081734,70.0167151 326.3,70.8145333 326.3,73.3060585" id="Fill-24" fill="#FEFEFE"></path>
                <path d="M331.629049,11.3230966 C331.629049,6.30838247 335.717868,2.6 341.746499,2.6 C347.775131,2.6 351.660188,6.30838247 351.660188,11.3230966 C351.660188,16.4364522 347.775131,20.1475006 341.746499,20.1475006 C335.717868,20.1475006 331.629049,16.4364522 331.629049,11.3230966 M330.2,73.6937708 L330.2,73.2938734 C330.2,70.7878493 334.082341,69.9827224 334.082341,65.6718277 L334.082341,43.0109715 C334.082341,38.5987695 330.2,37.4950526 330.2,35.2902845 L330.2,34.9863625 C330.2,34.0852602 331.015047,33.5840554 332.34629,32.8829018 L345.118077,26.6658293 C347.671891,25.4608049 349.307419,26.865778 349.307419,28.6706486 L349.307419,65.6718277 C349.307419,69.9827224 353.6,70.7878493 353.6,73.2938734 L353.6,73.6937708 C353.6,74.6961805 352.681714,75.4 351.249948,75.4 L332.446813,75.4 C331.118286,75.4 330.2,74.6961805 330.2,73.6937708" id="Fill-26" fill="#FEFEFE"></path>
                <path d="M416,74.5887691 L416,74.9923082 C416,75.9971472 415.102967,76.7 413.704339,76.7 L396.435133,76.7 C395.039159,76.7 394.139472,75.9971472 394.139472,74.9923082 L394.139472,74.5887691 C394.139472,72.0766716 397.931957,71.2722659 397.732911,66.8493708 L396.735028,48.2545042 C396.236087,37.4979164 393.340635,33.0750213 388.051327,33.0750213 C382.658515,33.0750213 379.564017,37.5994693 379.564017,44.1335953 L379.564017,66.9509237 C379.564017,71.2722659 383.858097,72.0766716 383.858097,74.5887691 L383.858097,74.9923082 C383.858097,75.9971472 382.95841,76.7 381.562437,76.7 L362.995452,76.7 C361.596824,76.7 360.699791,75.9971472 360.699791,74.9923082 L360.699791,74.5887691 C360.699791,72.0766716 364.991217,71.2722659 364.991217,66.9509237 L364.991217,43.5296229 C364.991217,39.0051749 360.1,38.6043083 360.1,36.0895383 L360.1,35.6886717 C360.1,34.6838327 360.898837,34.1814132 362.095765,33.5774408 L373.974814,27.7488401 C376.270474,26.5408953 377.369207,27.9492734 377.369207,29.8573985 L377.369207,35.4882384 C380.062959,30.3624905 385.354921,27.345301 392.143707,27.345301 C401.228154,27.345301 410.010051,32.7730351 411.209633,48.7542513 L412.406561,66.8493708 C412.706457,71.2722659 416,72.0766716 416,74.5887691" id="Fill-28" fill="#FEFEFE"></path>
                <g id="Group-32" transform="translate(419.600000, 27.300000)">
                    <mask id="mask-4" fill="white">
                        <use xlink:href="#path-3"></use>
                    </mask>
                    <g id="Clip-31"></g>
                    <path d="M14.2522789,17.925843 C14.2522789,21.033233 14.55424,23.940748 15.2570344,26.547118 L28.2253289,20.031193 C30.0317511,19.130423 30.83609,17.424823 30.83609,15.319473 C30.83609,11.711063 28.2253289,4.595513 22.7953733,4.595513 C17.4696344,4.595513 14.2522789,10.309273 14.2522789,17.925843 M45.0095567,35.168393 C44.4056344,40.980758 37.57009,50.302928 24.6044678,50.302928 C10.63409,50.302928 0.281901111,40.279863 0.281901111,24.841518 C0.281901111,10.309273 11.4384289,0.184938 24.6044678,0.184938 C37.7705067,0.184938 43.6012956,7.801508 43.6012956,14.418703 C43.6012956,17.824573 41.8937456,19.831318 39.1787678,21.033233 L16.8657122,31.157568 C19.4791456,36.671453 24.10209,39.877448 30.1332956,39.877448 C35.4617067,39.877448 39.6811456,37.172473 41.5917844,34.065083 C42.7969567,32.562023 45.1084289,33.063043 45.0095567,35.168393" id="Fill-30" fill="#FEFEFE" mask="url(#mask-4)"></path>
                </g>
                <path d="M10.4919134,134.500422 L17.9874503,134.500422 L14.2396818,123.125623 L10.4919134,134.500422 Z M12.6365591,120.9 L16.0840772,120.9 L23.4,143 L20.799617,143 L18.6844602,136.630113 L9.76541464,136.630113 L7.67974665,143 L5.2,143 L12.6365591,120.9 Z" id="Fill-33" fill="#FEFEFE"></path>
                <polygon id="Fill-35" fill="#FEFEFE" points="27.3 120.9 30.8100424 120.9 41.6239485 139.16546 41.6239485 120.9 44.2 120.9 44.2 143 41.0949625 143 29.8788067 124.052053 29.8788067 143 27.3 143"></polygon>
                <path d="M55.0741349,140.804527 C60.7183486,140.804527 63.5390954,137.405792 63.5390954,131.995225 L63.5390954,131.748543 C63.5390954,126.65044 61.0855625,123.062582 55.0442137,123.062582 L52.0684211,123.062582 L52.0684211,140.804527 L55.0741349,140.804527 Z M49.4,120.9 L55.1965395,120.9 C62.7421053,120.9 66.3,125.597929 66.3,131.748543 L66.3,132.028116 C66.3,138.145839 62.8019475,143 55.1339771,143 L49.4,143 L49.4,120.9 Z" id="Fill-37" fill="#FEFEFE"></path>
            </g>
        </g>
    </g>
</svg>