<?xml version="1.0" encoding="UTF-8"?>
<svg width="114px" height="32px" viewBox="0 0 114 32" version="1.1" xmlns="http://www.w3.org/2000/svg" xmlns:xlink="http://www.w3.org/1999/xlink">
    <!-- Generator: Sketch 57.1 (83088) - https://sketch.com -->
    <title>Group</title>
    <desc>Created with Sketch.</desc>
    <g id="Page-1" stroke="none" stroke-width="1" fill="none" fill-rule="evenodd">
        <g id="Artboard-Copy" transform="translate(-36.000000, -32.000000)" fill="#ED3124">
            <g id="Group" transform="translate(36.000000, 32.000000)">
                <path d="M78.3039507,0.887887864 L78.3039507,0.710782572 C78.3039507,0.26683864 78.7040365,1.3500312e-13 79.3278389,1.3500312e-13 L87.6988642,1.3500312e-13 C88.3214829,1.3500312e-13 88.7215686,0.26683864 88.7215686,0.710782572 L88.7215686,0.887887864 C88.7215686,1.99774769 86.8525289,2.39800565 86.8525289,4.26351473 L86.8075488,18.341024 C86.7625688,28.3333046 82.6670162,31.9309034 76.2111944,31.974902 C68.1976422,32.0194561 65.8823529,27.2234448 65.8823529,24.2032092 C65.8823529,22.2491475 67.0837939,20.9173157 68.9540173,20.9173157 C74.1634181,20.9173157 71.4480431,29.2660592 76.5674838,29.2660592 C78.7490166,29.2660592 80.0404177,26.5563482 80.0404177,22.2491475 L80.0404177,4.26351473 C80.0404177,2.39800565 78.3039507,1.99774769 78.3039507,0.887887864" id="Fill-14"></path>
                <path d="M107.194136,23.5571159 C107.194136,18.7022948 104.800072,11.6663566 101.030394,11.6663566 C98.3711085,11.6663566 96.9518801,13.9374656 96.9518801,18.1682645 C96.9518801,22.7116666 99.345944,30.015212 103.380843,30.015212 C105.774907,30.015212 107.194136,27.6541112 107.194136,23.5571159 M90.4345098,20.7069807 C90.4345098,14.2488846 95.7106446,9.70666667 101.918001,9.70666667 C108.745385,9.70666667 113.844706,14.6052995 113.844706,20.929592 C113.844706,27.2538845 109.056578,31.974902 102.582822,31.974902 C95.4442446,31.974902 90.4345098,26.8974696 90.4345098,20.7069807" id="Fill-16"></path>
                <path d="M38.2556863,30.5196022 L38.2556863,30.6513093 C38.2556863,31.1381554 37.8589208,31.4039216 37.2432905,31.4039216 L29.3185138,31.4039216 C28.7461883,31.4039216 28.3072884,31.1381554 28.3072884,30.6513093 L28.3072884,30.5196022 C28.3072884,29.414203 30.1998248,29.0155537 29.8475345,27.0681695 L26.7658719,9.5099612 L19.3256407,30.1656392 C19.0623008,30.9617619 18.7100104,31.3592352 17.9176498,31.3592352 C17.1252892,31.3592352 16.6407437,31.0052723 16.2884533,30.2091496 L8.14364147,8.71266261 L5.32648927,27.0681695 C5.01867413,29.0155537 6.91121053,29.414203 6.91121053,30.5196022 L6.91121053,30.6513093 C6.91121053,31.1381554 6.55892021,31.4039216 5.94328994,31.4039216 L0.969090994,31.4039216 C0.352290325,31.4039216 -4.97379915e-14,31.1381554 -4.97379915e-14,30.6513093 L-4.97379915e-14,30.5196022 C-4.97379915e-14,29.414203 1.45363649,29.0155537 1.76145163,27.0681695 L5.41426925,4.28988975 C5.67994999,2.43187829 3.7862432,2.03440495 3.7862432,0.884319379 L3.7862432,0.752612238 C3.7862432,0.310452548 4.13853352,0 4.710859,0 L9.55280277,0 C10.6096737,0 11.3587296,0.486846041 11.7098495,1.45936217 L18.8422656,22.2926097 L25.8857313,1.45936217 C26.2368512,0.486846041 26.8981271,0 27.9105229,0 L32.9725018,0 C33.5015225,0 33.8971176,0.26459024 33.8971176,0.706749929 L33.8971176,0.884319379 C33.8971176,2.03440495 31.872326,2.43187829 32.2246164,4.4674592 L36.4509299,27.0681695 C36.8032202,29.0155537 38.2556863,29.414203 38.2556863,30.5196022" id="Fill-1"></path>
                <path d="M56.1572728,23.5583 C56.1572728,18.7022948 53.763209,11.6663566 49.9935309,11.6663566 C47.3342458,11.6663566 45.9150174,13.9374656 45.9150174,18.1682645 C45.9150174,22.7116666 48.3090812,30.015212 52.3439806,30.015212 C54.7380444,30.015212 56.1572728,27.6552953 56.1572728,23.5583 M39.3976471,20.7081648 C39.3976471,14.2500687 44.6737819,9.70666667 50.881138,9.70666667 C57.7085225,9.70666667 62.8078431,14.6052995 62.8078431,20.929592 C62.8078431,27.2550686 58.0197154,31.974902 51.5459593,31.974902 C44.4073819,31.974902 39.3976471,26.8974696 39.3976471,20.7081648" id="Fill-3"></path>
                <path d="M74.5787733,6.93856 L72.6568533,10.6017067 L74.6280533,13 L72.96896,13 L71.8026667,11.5873067 C71.0634667,12.4414933 70.0285867,13.1149867 68.5501867,13.1149867 C66.3982933,13.1149867 64.83776,11.8337067 64.83776,9.89536 C64.83776,8.03914667 66.02048,7.10282667 67.5317333,6.36362667 C66.8418133,5.47658667 66.4968533,4.67168 66.4968533,3.8832 C66.4968533,2.10912 67.89312,1.18922667 69.37152,1.18922667 C70.8170667,1.18922667 71.93408,2.19125333 71.93408,3.60394667 C71.93408,5.03306667 70.9156267,6.00224 69.4208,6.64288 L71.8848,9.64896 L73.31392,6.93856 L74.5787733,6.93856 Z M68.5994667,11.9979733 C69.5357867,11.9979733 70.3899733,11.57088 71.09632,10.7166933 L68.1723733,7.15210667 C67.0225067,7.71061333 66.2176,8.38410667 66.2176,9.76394667 C66.2176,11.17664 67.1210667,11.9979733 68.5994667,11.9979733 Z M67.8109867,3.89962667 C67.8109867,4.49098667 68.1888,5.08234667 68.82944,5.88725333 C70.1435733,5.29589333 70.6528,4.70453333 70.6528,3.57109333 C70.6528,2.81546667 70.11072,2.25696 69.32224,2.25696 C68.5009067,2.25696 67.8109867,2.74976 67.8109867,3.89962667 Z" id="&amp;" fill-rule="nonzero"></path>
            </g>
        </g>
    </g>
</svg>