<?xml version="1.0" encoding="utf-8"?>
<!-- Generator: Adobe Illustrator 23.0.1, SVG Export Plug-In . SVG Version: 6.00 Build 0)  -->
<svg version="1.1" id="Layer_1" xmlns="http://www.w3.org/2000/svg" xmlns:xlink="http://www.w3.org/1999/xlink" x="0px" y="0px"
	 viewBox="0 0 655 470.4" style="enable-background:new 0 0 655 470.4;" xml:space="preserve">
<style type="text/css">
	.st0{fill:#FFFFFF;}
	.st1{fill:none;stroke:#ED3024;stroke-width:3.6057;stroke-miterlimit:10;}
	.st2{fill:#ED3024;}
	.st3{fill:#F9C8C8;}
</style>
<g>
	<g>
		<path class="st0" d="M228.9,266v0.4c0,1.5-1.2,2.3-3.1,2.3h-24.4c-1.8,0-3.1-0.8-3.1-2.3V266c0-3.4,5.8-4.6,4.7-10.6l-9.5-53.8
			l-22.9,63.3c-0.8,2.4-1.9,3.7-4.3,3.7c-2.4,0-3.9-1.1-5-3.5l-25.1-65.9l-8.7,56.3c-0.9,6,4.9,7.2,4.9,10.6v0.4
			c0,1.5-1.1,2.3-3,2.3H114c-1.9,0-3-0.8-3-2.3V266c0-3.4,4.5-4.6,5.4-10.6l11.3-69.8c0.8-5.7-5-6.9-5-10.4v-0.4
			c0-1.4,1.1-2.3,2.8-2.3h14.9c3.3,0,5.6,1.5,6.6,4.5l22,63.9l21.7-63.9c1.1-3,3.1-4.5,6.2-4.5h15.6c1.6,0,2.8,0.8,2.8,2.2v0.5
			c0,3.5-6.2,4.7-5.2,11l13,69.3C224.4,261.4,228.9,262.6,228.9,266z"/>
		<path class="st0" d="M232.3,235.8c0-19.7,16.1-33.5,35.1-33.5c20.9,0,36.5,14.9,36.5,34.2c0,19.3-14.6,33.6-34.4,33.6
			C247.6,270.1,232.3,254.6,232.3,235.8z M283.5,244.5c0-14.8-7.3-36.2-18.9-36.2c-8.1,0-12.5,6.9-12.5,19.8
			c0,13.8,7.3,36.1,19.7,36.1C279.2,264.1,283.5,256.9,283.5,244.5z"/>
		<path class="st0" d="M365.6,214.6c0,5.7-2.2,10.7-8.7,10.7c-10.6,0-5.8-11.7-13.2-11.7c-5.3,0-7.2,7.5-7.2,14.9v27.1
			c0,5.7,6.8,6.8,6.8,10.2v0.5c0,1.5-1.2,2.3-3,2.3h-25.1c-1.9,0-3.1-0.8-3.1-2.3v-0.5c0-3.4,5.3-4.5,5.3-10.2V224
			c0-6-6.2-6.4-6.2-9.8v-0.5c0-1.4,1.1-2.4,2.8-3.3l16.3-7.6c3.1-1.5,4.3,0.1,4.3,2.7v10.2c3-8.7,9.4-13.4,18.4-13.4
			C361.1,202.3,365.6,207.7,365.6,214.6z"/>
		<path class="st0" d="M376,246.6v-35.1h-6.4c-1.6,0-2.7-1.1-2.7-2.7v-2.3c0-1.8,0.9-2.8,2.7-2.8h3.4c7.6,0,12.9-5.4,14.4-13.4
			c0.4-2,1.6-3.3,3.1-3.3h2.7c1.9,0,3,1.2,3,3.3l0.1,13.4h15.6c1.5,0,2.7,1.2,2.7,2.8v2.3c0,1.6-1.2,2.7-2.7,2.7h-15.6v35.4
			c0,5.4,3,8.7,6.9,8.7c5.4,0,8.1-3,9.2-6.1c1.6-2.3,4.9-1.8,4.9,0.8c0,9.8-7.3,19.8-20.9,19.8C384.1,270.1,376,262.1,376,246.6z"/>
		<path class="st0" d="M481.6,249.6c-0.8,7.9-10,20.5-27.5,20.5c-18.9,0-32.8-13.6-32.8-34.4c0-19.7,15.1-33.4,32.8-33.4
			s25.6,10.3,25.6,19.3c0,4.6-2.3,7.3-6,9l-30.1,13.7c3.5,7.5,9.8,11.8,17.9,11.8c7.2,0,12.9-3.7,15.5-7.9
			C478.7,246.1,481.8,246.8,481.6,249.6z M440.1,226.3c0,4.2,0.4,8.1,1.4,11.7l17.5-8.8c2.4-1.2,3.5-3.5,3.5-6.4
			c0-4.9-3.5-14.5-10.8-14.5C444.5,208.2,440.1,216,440.1,226.3z"/>
		<path class="st0" d="M563.8,266v0.5c0,1.4-1.2,2.3-3.1,2.3h-23.5c-1.9,0-3.1-1-3.1-2.3V266c0-3.4,5.2-4.5,4.9-10.4l-1.4-25.1
			C537,216,533,210,525.8,210c-7.3,0-11.5,6.1-11.5,14.9v30.8c0,5.8,5.8,6.9,5.8,10.3v0.5c0,1.4-1.2,2.3-3.1,2.3h-25.2
			c-1.9,0-3.1-1-3.1-2.3V266c0-3.4,5.8-4.5,5.8-10.3v-31.6c0-6.1-6.6-6.6-6.6-10v-0.5c0-1.4,1.1-2,2.7-2.8l16.1-7.9
			c3.1-1.6,4.6,0.3,4.6,2.8v7.6c3.7-6.9,10.9-11,20.1-11c12.3,0,24.3,7.3,25.9,28.9l1.6,24.4C559.3,261.5,563.8,262.6,563.8,266z"/>
	</g>
	<g>
		<path class="st0" d="M52.2,21.4v-0.5c0-1.4,1.2-2.2,3.1-2.2h25.5c1.9,0,3.1,0.8,3.1,2.2v0.5c0,3.4-5.7,4.6-5.7,10.3l-0.1,43
			c-0.1,30.5-12.6,41.5-32.3,41.6c-24.4,0.1-31.5-14.5-31.5-23.7c0-6,3.7-10,9.4-10c15.9,0,7.6,25.5,23.2,25.5
			c6.6,0,10.6-8.3,10.6-21.4V31.7C57.5,26,52.2,24.8,52.2,21.4z"/>
		<path class="st0" d="M89.1,82c0-19.7,16.1-33.5,35.1-33.5c20.9,0,36.5,14.9,36.5,34.2c0,19.3-14.6,33.6-34.4,33.6
			C104.4,116.4,89.1,100.9,89.1,82z M140.3,90.7c0-14.8-7.3-36.2-18.9-36.2c-8.1,0-12.5,6.9-12.5,19.8c0,13.8,7.3,36.1,19.7,36.1
			C136,110.4,140.3,103.2,140.3,90.7z"/>
		<path class="st0" d="M167.8,100.5c0-5.2,3.5-7.5,8.1-7.5c11.9,0,7.3,17.9,20.9,17.9c5.6,0,9.9-2.8,9.9-9c0-18-37.7-6.8-37.7-33.5
			c0-11.5,11.3-19.9,27.5-19.9c17.1,0,27.9,7.9,27.9,16.3c0,3.9-3.4,7.1-7.7,7.1c-11.3,0-7.3-17.8-19.1-17.8c-5.4,0-8.8,4.2-8.8,9.1
			c0,18.6,37,7.7,37,33.6c0,11-10.8,19.4-29,19.4C179.4,116.2,167.8,108.9,167.8,100.5z"/>
		<path class="st0" d="M293.1,95.9c-0.8,7.9-10,20.5-27.5,20.5c-18.9,0-32.8-13.6-32.8-34.4c0-19.7,15.1-33.4,32.8-33.4
			s25.6,10.3,25.6,19.3c0,4.6-2.3,7.3-6,9l-30.1,13.7c3.5,7.5,9.8,11.8,17.9,11.8c7.2,0,12.9-3.7,15.5-7.9
			C290.2,92.4,293.3,93,293.1,95.9z M246.3,38.9c-0.9-1.6-0.4-3.7,0.8-4.7l23.6-17.9c2.8-2.3,5.4-1.5,6.9,1.5l3.7,7.5
			c1.5,2.7,0.5,5.6-2.7,6.4l-27.4,8.8C249.3,40.9,247.4,40.5,246.3,38.9z M251.6,72.5c0,4.2,0.4,8.1,1.4,11.7l17.5-8.8
			c2.4-1.2,3.5-3.5,3.5-6.4c0-4.9-3.5-14.5-10.8-14.5C256,54.5,251.6,62.2,251.6,72.5z"/>
		<path class="st0" d="M371.8,81.4c0,21-14.6,35-31.6,35c-6.6,0-11.8-1.9-15.9-5.3v20.2c0,5.8,5.7,6.9,5.7,10.3v0.5
			c0,1.5-1.2,2.3-3.1,2.3h-24.5c-1.9,0-3.1-0.8-3.1-2.3v-0.5c0-3.4,5.3-4.5,5.3-10.3v-61c0-5.6-6.2-6-6.2-9.5v-0.7
			c0-1.4,1.1-2.4,2.7-3.3l15.2-7.5c3.8-1.9,5.2-0.1,5.2,2.4l-0.1,5.7c3.7-5.7,10.4-9,18.9-9C355.8,48.5,371.8,59.9,371.8,81.4z
			 M351.9,89.5c0-17.1-5.8-35.1-16.5-35.1c-5.7,0-10.2,4.5-11,11v25.9c0,10.7,6.6,19.3,13.8,19.3
			C346.8,110.5,351.9,103.1,351.9,89.5z"/>
		<path class="st0" d="M453.8,112.2v0.5c0,1.5-1.2,2.3-3,2.3h-23.6c-1.8,0-3-0.8-3-2.3v-0.5c0-3.4,5.2-4.5,4.9-10.3l-1.4-26
			c-0.7-13.6-4.6-19.5-11.8-19.5c-7.3,0-11.5,6.1-11.5,14.9V102c0,5.7,5.8,6.8,5.8,10.2v0.5c0,1.4-1.4,2.3-3.3,2.3h-25.1
			c-1.9,0-3.1-0.9-3.1-2.3v-0.5c0-3.4,5.7-4.5,5.7-10.2V34.4c0-6-6.1-6.5-6.1-9.8v-0.4c0-1.5,1.1-2.6,2.7-3.4L399,13
			c3-1.4,4.9-0.3,4.9,2.4l-0.1,40.7c4.1-4.9,10.2-7.6,17.8-7.6c12.3,0,24.3,7.3,25.6,27.8l1.8,25.4
			C449.5,107.7,453.8,108.8,453.8,112.2z"/>
		<path class="st0" d="M460.6,112.7v-0.5c0-3.4,5.2-4.5,5.2-10.3V71.2c0-6-5.2-7.5-5.2-10.4v-0.4c0-1.2,1.1-1.9,2.8-2.8l17-8.4
			c3.4-1.6,5.6,0.3,5.6,2.7v50c0,5.8,5.7,6.9,5.7,10.3v0.5c0,1.4-1.2,2.3-3.1,2.3h-25C461.8,115,460.6,114,460.6,112.7z M462.5,28.3
			c0-6.8,5.4-11.8,13.4-11.8c8,0,13.2,5,13.2,11.8c0,6.9-5.2,11.9-13.2,11.9C467.9,40.3,462.5,35.3,462.5,28.3z"/>
		<path class="st0" d="M574.6,112.3v0.5c0,1.4-1.2,2.3-3.1,2.3h-23.5c-1.9,0-3.1-0.9-3.1-2.3v-0.5c0-3.4,5.2-4.5,4.9-10.4l-1.4-25.1
			c-0.7-14.5-4.6-20.5-11.8-20.5c-7.3,0-11.5,6.1-11.5,14.9V102c0,5.8,5.8,6.9,5.8,10.3v0.5c0,1.4-1.2,2.3-3.1,2.3h-25.2
			c-1.9,0-3.1-0.9-3.1-2.3v-0.5c0-3.4,5.8-4.5,5.8-10.3V70.4c0-6.1-6.6-6.6-6.6-10v-0.5c0-1.4,1.1-2,2.7-2.8l16.1-7.9
			c3.1-1.6,4.6,0.3,4.6,2.8v7.6c3.7-6.9,10.9-11,20.1-11c12.3,0,24.3,7.3,25.9,28.9l1.6,24.4C570.2,107.8,574.6,108.9,574.6,112.3z"
			/>
		<path class="st0" d="M640.7,95.9c-0.8,7.9-10,20.5-27.5,20.5c-18.9,0-32.8-13.6-32.8-34.4c0-19.7,15.1-33.4,32.8-33.4
			c17.8,0,25.6,10.3,25.6,19.3c0,4.6-2.3,7.3-6,9l-30.1,13.7c3.5,7.5,9.8,11.8,17.9,11.8c7.2,0,12.9-3.7,15.5-7.9
			C637.7,92.4,640.8,93,640.7,95.9z M599.2,72.5c0,4.2,0.4,8.1,1.4,11.7l17.5-8.8c2.4-1.2,3.5-3.5,3.5-6.4c0-4.9-3.5-14.5-10.8-14.5
			C603.5,54.5,599.2,62.2,599.2,72.5z"/>
	</g>
	<g>
		<g>
			<path class="st0" d="M31.2,175.5h4.6l9.8,29.1h-3.5l-2.8-8.4h-12l-2.8,8.4h-3.3L31.2,175.5z M28.3,193.4h10.1l-5-15L28.3,193.4z"
				/>
			<path class="st0" d="M50.8,175.5h4.6l14.2,24v-24h3.4v29.1h-4.1l-14.7-24.9v24.9h-3.4V175.5z"/>
			<path class="st0" d="M80.3,175.5H88c10,0,14.7,6.2,14.7,14.3v0.4c0,8-4.6,14.4-14.8,14.4h-7.6V175.5z M87.8,201.7
				c7.5,0,11.2-4.5,11.2-11.6v-0.3c0-6.7-3.3-11.4-11.3-11.4h-3.9v23.3H87.8z"/>
		</g>
	</g>
</g>
<g>
	<path class="st1" d="M267.4,456.6c20.4-15,41.4-30.6,53.9-52.7"/>
	<path class="st1" d="M357.9,396c-19,18.7-42,33.4-67,42.8"/>
	<path class="st1" d="M351.4,421.6c-2.5-0.8-5.2-0.5-7.8-0.1c-7.4,0.9-14.9,1.9-22.3,2.8"/>
	<path class="st1" d="M339.9,376.6c0,3.5,0,6.9,0,10.4c0,3.7,0,7.3-0.5,10.9c-1.4,10.1-6.9,19.6-15,25.7"/>
	<path class="st2" d="M349.2,421.8c-1.6,1.1-2.3,3.1-2.5,5c-0.2,1.9,0.2,3.8,0.6,5.7c0.1,0.4,0.2,0.8,0.5,0.9
		c0.3,0.1,0.6,0.1,0.9-0.1c1-0.3,1.9-0.8,2.9-0.9c1-0.1,2.1,0.1,2.7,0.9c0.4,0.5,0.5,1.2,0.8,1.7c0.6,1.3,1.9,2.1,3.3,2.1
		c1.4,0,2.8-0.8,3.4-2.1c2,1.4,5.1,1,6.7-0.9c0.5-0.5,0.8-1.2,1.3-1.7c0.6-0.6,1.3-1.1,1.9-1.7c2.2-2.3,1.2-6.7-1.7-7.9
		c7.4-7.1-19.5-15.9-16.3-6.3c-1-2.1-3.2-0.6-4.1,0.7C349.4,417.7,348.6,422.3,349.2,421.8z"/>
	<path class="st2" d="M360,398.4c2.4,0.4,4.7-1.1,6.1-3.1c1,2.2,2.1,4.4,3.9,5.9s4.5,2.3,6.6,1.1c1.3-0.8,2.1-2.2,2.9-3.5
		c2.5,1.4,6,0.4,7.5-2.1s0.6-6-1.8-7.6c0.4-3.9-0.5-8.4-3.7-10.7c-1.6-1.1-3.6-1.7-4.8-3.2c-0.7-0.8-1.3-2.1-2.3-2
		c-0.7,0.1-1.2,0.8-1.9,1.2c-0.9,0.5-2,0.1-3-0.3c-0.9-0.4-1.9-1-2.9-0.8c-1,0.1-1.9,1.4-1.2,2.2c-1.5-1-3.5-0.9-5,0.1
		s-2.1,3-1.7,4.7c-2.5,2.6-3.7,6.5-3,10.1c0.2,1,1,1.6,1.2,2.4c0.2,0.7-0.1,1.4,0.1,2.1C357.2,396.6,358.2,398.1,360,398.4z"/>
	<path class="st2" d="M347.6,371.1c2-0.2,3.5-2.1,3.9-4c0.4-1.9-0.1-4-0.8-5.8c0.1,0.5,0.7,0.8,1.2,0.6c0.1-2.5-1.2-5-3.3-6.4
		c-2.1-1.4-4.9-1.7-7.2-0.6c-0.9-1-1.7-2-2.6-3c-0.3-0.3-0.6-0.7-1-0.8c-1.3-0.5-2.3,1.3-3.7,1.7c-3-0.6-6.2,2.1-6.1,5.2
		c0.1-0.4-0.6-0.4-1-0.1c-2.4,2-2.8,6-0.8,8.5c-1,0.1-1.8,1.1-1.9,2.1c-0.1,1,0.4,2,1.1,2.8c1.2,1.6,3.7,2.6,5.2,1.4
		c-0.4,1.3-0.6,2.7,0.1,3.9c0.7,1.1,2.7,1.3,3.2,0.1c-0.5,1.2,1.4,3,2.3,3.4c1.8,0.8,3.4-0.1,4.7-1.4
		C343.1,376.2,346.8,374.3,347.6,371.1z"/>
	<path class="st2" d="M324,406.9c1.5-0.8,2.5-2.4,3.3-3.9c0.7,1.2,2.6,0.7,3.6-0.2c3.7-3.2,4-9.5,0.6-13c-1.4-1.4-3.8-2.3-5.2-1
		c-0.4-1.4-0.8-2.8-1.7-3.9s-2.4-1.9-3.7-1.5c-0.6,0.2-1.2,0.5-1.8,0.4c-0.4-0.1-0.8-0.4-1.1-0.6c-1.3-0.8-3.1-0.3-4.3,0.7
		c-1.2,1-1.8,2.5-2.4,3.9c-0.4-0.3-0.8-0.6-1.2-1c-2.5,2.3-3,6.5-1.1,9.3c-1,1-1.9,1.9-2.5,3.2c-0.5,1.3-0.4,2.8,0.5,3.8
		c1,0.9,2.9,0.7,3.4-0.6c-0.4,0.7-0.9,1.5-1,2.4c-0.1,0.9,0.4,1.8,1.2,2.1c0.5,0.1,1,0,1.5-0.1c1.9-0.4,5.4-2,7.3-1.4
		C321.1,406.1,321.5,408.2,324,406.9z"/>
	<path class="st3" d="M341.8,369.8c0.9-0.5,1.6-1.3,2.2-2.1c2.8-3.6-4.1-11-8-6.3C332.8,365.3,336.8,372.6,341.8,369.8z"/>
	<path class="st3" d="M372.2,391.2c4.4-3.8,1.9-9.3-3.5-9.3c-0.6,0-1.1,0.1-1.6,0.3c-0.3,0.2-0.6,0.5-0.8,0.9
		c-0.5,0.6-0.9,1.2-1.3,1.9c-0.4,0.6-0.7,1.1-0.7,1.8c0,1,0.7,1.9,1.6,2.5c1.3,0.9,3,3,4.7,2.7C371.2,391.9,371.7,391.6,372.2,391.2
		z"/>
	<path class="st3" d="M361.3,420.8c-1.7,0.2-3.2,1.1-4.4,2.3c-0.4,0.4-0.7,0.9-0.8,1.4c-0.2,0.9,0.2,1.8,0.8,2.5
		c1.5,1.7,4.2,2.1,6.1,1c0.6-0.3,1.1-0.8,1.3-1.5c0.2-0.7,0-1.4-0.3-2.1c-0.5-1.3-1.2-2.7-2.5-3.3s-3.2-0.1-3.4,1.3"/>
	<path class="st3" d="M314.3,396.6c0.9,2.5,5.3,3.4,7.1,1.5c2.7-2.7,1.1-6.8-2.5-7.7c-1.2-0.3-2.4,0.4-3.1,1.3s-1.1,2.1-1.4,3.3
		C314.3,395.6,314.2,396.1,314.3,396.6z"/>
</g>
</svg>
