<?xml version="1.0" standalone="no"?>
<!DOCTYPE svg PUBLIC "-//W3C//DTD SVG 20010904//EN"
 "http://www.w3.org/TR/2001/REC-SVG-20010904/DTD/svg10.dtd">
<svg version="1.0" xmlns="http://www.w3.org/2000/svg"
 width="512.000000pt" height="512.000000pt" viewBox="0 0 512.000000 512.000000"
 preserveAspectRatio="xMidYMid meet">
<metadata>
Created by potrace 1.11, written by Peter Selinger 2001-2013
</metadata>
<g transform="translate(0.000000,512.000000) scale(0.100000,-0.100000)"
fill="#000000" stroke="none">
<path d="M428 4749 c-32 -18 -23 -71 20 -120 22 -24 44 -55 51 -67 13 -24 16
-87 7 -132 -10 -46 -15 -75 -21 -112 -9 -66 -16 -112 -21 -138 -2 -14 -7 -41
-10 -60 -3 -19 -7 -46 -10 -60 -2 -14 -6 -43 -9 -65 -3 -22 -7 -51 -10 -65 -3
-14 -7 -36 -9 -50 -3 -14 -7 -41 -10 -60 -5 -33 -31 -197 -42 -265 -7 -40 -12
-72 -19 -120 -3 -22 -7 -47 -10 -55 -2 -8 -6 -35 -9 -60 -4 -25 -8 -56 -10
-70 -3 -14 -7 -41 -10 -60 -3 -19 -7 -44 -10 -55 -2 -11 -7 -42 -10 -70 -13
-94 -29 -136 -76 -200 -53 -72 -62 -121 -24 -140 33 -16 388 -13 408 4 28 23
19 63 -25 116 -23 28 -47 63 -54 79 -13 30 -12 39 6 156 5 36 11 80 14 98 2
18 6 45 9 60 3 15 8 47 11 72 6 41 38 251 50 328 3 17 8 49 11 70 2 20 6 47 8
59 3 12 10 57 16 100 6 43 13 89 16 103 2 14 9 63 15 110 7 47 15 88 18 92 6
7 38 -74 340 -877 100 -264 190 -496 200 -515 22 -42 53 -60 102 -60 48 0 69
26 109 135 17 50 70 196 117 325 47 129 104 289 128 355 158 443 208 581 214
588 4 4 15 -39 24 -95 10 -57 30 -177 46 -268 16 -91 32 -181 36 -200 3 -19
17 -96 30 -170 13 -74 26 -153 30 -175 3 -22 13 -74 21 -115 9 -41 16 -98 17
-127 1 -51 -14 -81 -75 -147 -10 -11 -18 -22 -19 -25 0 -3 -2 -16 -4 -27 -3
-13 4 -29 16 -40 19 -18 41 -19 309 -19 309 1 320 2 320 52 0 30 -14 58 -53
102 -46 54 -60 101 -101 331 -2 14 -15 86 -30 160 -14 74 -27 146 -30 160 -4
25 -35 186 -42 225 -2 11 -8 45 -14 75 -6 30 -12 66 -15 80 -3 14 -18 97 -34
185 -17 88 -32 170 -35 181 -2 12 -7 37 -10 55 -3 19 -12 67 -19 108 -18 93
-11 121 48 190 57 67 66 98 35 123 -20 16 -43 18 -219 18 -255 0 -252 1 -311
-170 -18 -52 -120 -354 -226 -670 -107 -316 -197 -582 -200 -590 -4 -10 -11
-2 -21 25 -25 67 -191 551 -404 1175 -79 232 -76 230 -339 230 -107 0 -192 -5
-202 -11z"/>
<path d="M3375 4123 c-256 -35 -469 -183 -578 -400 -57 -112 -82 -280 -63
-418 28 -197 156 -390 331 -500 138 -86 279 -124 459 -123 407 2 707 287 722
683 10 290 -132 536 -385 668 -68 36 -177 73 -240 82 -52 8 -211 13 -246 8z
m127 -145 c144 -71 265 -310 302 -601 45 -339 -47 -564 -231 -569 -97 -3 -195
68 -271 198 -62 104 -97 204 -138 399 -3 17 -8 87 -9 157 -6 231 46 363 165
418 55 25 130 24 182 -2z"/>
<path d="M2669 2432 c-51 -16 -55 -67 -9 -119 14 -15 37 -44 50 -63 l25 -35 2
-655 c1 -360 -2 -684 -8 -720 -30 -218 -124 -328 -258 -305 -88 15 -143 79
-186 215 -68 213 -90 254 -160 295 -57 34 -144 36 -204 5 -88 -45 -123 -159
-89 -292 65 -256 315 -409 658 -402 213 4 351 55 471 174 95 93 170 257 195
420 19 132 22 195 23 530 3 647 4 705 14 733 5 15 29 49 53 76 62 69 75 119
36 137 -18 8 -588 14 -613 6z"/>
<path d="M1738 2335 c-126 -32 -167 -146 -99 -276 l29 -56 -32 -15 c-112 -54
-168 -183 -123 -289 57 -136 266 -172 398 -68 l42 33 37 -44 c35 -41 42 -45
88 -46 60 -1 60 0 -17 91 -28 32 -51 63 -51 68 0 4 27 60 61 123 l60 115 -43
-3 -43 -3 -44 -84 -43 -84 -27 29 c-44 48 -131 158 -131 166 0 5 5 8 11 8 22
0 98 61 119 95 41 67 32 151 -22 204 -28 27 -44 34 -103 45 -11 2 -41 -2 -67
-9z m98 -77 c43 -20 51 -99 16 -148 -19 -25 -78 -70 -92 -70 -14 0 -62 82 -67
116 -14 88 60 142 143 102z m-85 -349 c19 -22 39 -46 44 -52 66 -78 105 -127
105 -132 0 -14 -45 -47 -88 -67 -75 -34 -169 -10 -205 51 -23 39 -24 108 -3
153 17 34 79 88 102 88 6 0 26 -18 45 -41z"/>
<path d="M4117 1804 c-1 -1 -28 -5 -60 -8 -239 -28 -464 -183 -566 -391 -135
-275 -81 -607 134 -821 330 -327 914 -299 1178 59 56 74 112 209 125 297 9 58
9 213 0 266 -48 288 -297 528 -607 584 -54 10 -198 20 -204 14z m79 -150 c220
-104 378 -659 280 -979 -65 -213 -266 -255 -415 -88 -98 109 -184 323 -209
513 -8 67 -9 262 0 310 15 91 55 170 108 217 54 49 164 61 236 27z"/>
</g>
</svg>
